<?xml version="1.0" encoding="UTF-8" standalone="no"?>
<!-- Created with Inkscape (http://www.inkscape.org/) -->

<svg
   width="125.86465mm"
   height="125.86462mm"
   viewBox="0 0 125.86465 125.86462"
   version="1.1"
   id="svg5"
   inkscape:version="1.3 (1:1.3+202307231459+0e150ed6c4)"
   sodipodi:docname="icon-projects.svg"
   inkscape:export-filename="cards.png"
   inkscape:export-xdpi="96"
   inkscape:export-ydpi="96"
   xml:space="preserve"
   xmlns:inkscape="http://www.inkscape.org/namespaces/inkscape"
   xmlns:sodipodi="http://sodipodi.sourceforge.net/DTD/sodipodi-0.dtd"
   xmlns="http://www.w3.org/2000/svg"
   xmlns:svg="http://www.w3.org/2000/svg"><sodipodi:namedview
     id="namedview7"
     pagecolor="#ffffff"
     bordercolor="#000000"
     borderopacity="0.25"
     inkscape:showpageshadow="2"
     inkscape:pageopacity="0.0"
     inkscape:pagecheckerboard="0"
     inkscape:deskcolor="#d1d1d1"
     inkscape:document-units="mm"
     showgrid="false"
     inkscape:zoom="0.2481917"
     inkscape:cx="261.89433"
     inkscape:cy="866.26587"
     inkscape:window-width="1850"
     inkscape:window-height="1016"
     inkscape:window-x="0"
     inkscape:window-y="0"
     inkscape:window-maximized="1"
     inkscape:current-layer="layer1" /><defs
     id="defs2" /><g
     inkscape:label="Layer 1"
     inkscape:groupmode="layer"
     id="layer1"
     transform="translate(-377.1002,-692.90593)"><path
       style="fill:#b3b3b3;stroke:none;stroke-width:0.674408"
       d="m 429.847,701.84613 h 20.34184 c 6.14817,0 11.95192,-0.18479 17.12997,3.72901 8.38581,6.33836 7.85123,15.56641 7.85123,24.99937 v 40.14837 c 0,7.48007 0.58512,15.24682 -0.35687,22.66153 1.25381,-1.6761 1.6311,-4.59926 2.21697,-6.60218 1.23756,-4.2309 2.52838,-8.44818 3.79991,-12.66903 4.10328,-13.62089 8.22409,-27.23651 12.31217,-40.86214 2.38442,-7.9473 4.89774,-15.83134 -0.64574,-23.19683 -3.85551,-5.12271 -9.3461,-6.58467 -15.18519,-8.33657 -6.18628,-1.85606 -12.38967,-3.66977 -18.55747,-5.58608 -4.51836,-1.40383 -9.46281,-3.52089 -14.27497,-3.19135 -5.40186,0.36992 -12.56763,3.46143 -14.63185,8.9059 m -23.55371,12.31216 c 11.27975,-1.65962 23.31462,-10.43082 34.79525,-5.48033 8.60404,3.71008 10.87826,11.3566 13.28008,19.57687 4.30746,14.74238 8.6358,29.48212 12.84692,44.2524 2.24145,7.86178 5.6144,15.64411 4.5642,23.91061 1.52233,-2.01359 1.60593,-5.25857 1.60593,-7.67281 V 775.18382 728.6117 c 0,-8.03994 0.26189,-16.23516 -6.95905,-21.56308 -4.89647,-3.61283 -10.27553,-3.41812 -16.05935,-3.41812 h -19.62809 c -4.51613,0 -9.3615,-0.51826 -13.73966,0.79195 -4.49033,1.34378 -9.36087,5.06583 -10.70623,9.73584 m 25.15965,-4.20608 c -4.97956,0.71306 -9.99742,2.63394 -14.81029,4.07762 -4.56576,1.36956 -9.15551,2.67191 -13.73966,3.97889 -8.06388,2.29911 -15.92068,4.84111 -18.21932,13.99329 -1.28276,5.1074 0.44084,9.75822 1.82815,14.63182 2.18731,7.68401 4.4393,15.35014 6.67984,23.01843 2.53525,8.677 5.07997,17.35482 7.54502,26.05185 1.33698,4.71701 2.22332,10.39034 4.74524,14.63182 3.19845,5.37929 9.60641,9.0977 15.97853,8.33562 4.66849,-0.55834 9.23,-2.33534 13.73967,-3.6211 5.12277,-1.4605 10.23273,-2.96652 15.34559,-4.46033 3.00669,-0.87855 6.24669,-1.49982 9.1003,-2.80736 4.68782,-2.14799 8.13281,-6.37592 9.37235,-11.36492 1.32705,-5.34118 -0.67672,-10.45043 -2.15914,-15.52407 -2.23995,-7.66627 -4.32617,-15.38447 -6.6735,-23.01836 -2.65552,-8.63627 -5.05523,-17.36778 -7.55067,-26.05184 -1.33767,-4.65507 -2.24595,-9.90457 -4.74167,-14.09654 -3.258,-5.47236 -10.13842,-8.67727 -16.44044,-7.77482 z"
       id="path2" /><path
       style="fill:#000000"
       id="path1" /></g></svg>
