<?xml version="1.0" encoding="UTF-8" standalone="no"?>
<!-- Created with Inkscape (http://www.inkscape.org/) -->

<svg
   width="78.251297mm"
   height="125.67747mm"
   viewBox="0 0 78.251297 125.67747"
   version="1.1"
   id="svg1"
   xml:space="preserve"
   xmlns:inkscape="http://www.inkscape.org/namespaces/inkscape"
   xmlns:sodipodi="http://sodipodi.sourceforge.net/DTD/sodipodi-0.dtd"
   xmlns="http://www.w3.org/2000/svg"
   xmlns:svg="http://www.w3.org/2000/svg"><sodipodi:namedview
     id="namedview1"
     pagecolor="#ffffff"
     bordercolor="#000000"
     borderopacity="0.25"
     inkscape:showpageshadow="2"
     inkscape:pageopacity="0.0"
     inkscape:pagecheckerboard="0"
     inkscape:deskcolor="#d1d1d1"
     inkscape:document-units="mm" /><defs
     id="defs1" /><g
     inkscape:label="Layer 1"
     inkscape:groupmode="layer"
     id="layer1"
     transform="translate(-262.19184,-47.604045)"><path
       style="fill:#b3b3b3;fill-opacity:1;stroke:none"
       d="m 302.69857,47.604042 v 17.4625 c 3.0964,0.46413 5.707,2.7038 6.91203,5.55625 1.17849,2.78962 0.76088,6.03479 0.76088,8.99583 0,7.07905 2.18852,19.68848 -7.67291,21.166668 v 12.17083 c 0,1.0298 0.31874,3.57596 -1.32292,3.57596 -1.64166,0 -1.32292,-2.54616 -1.32292,-3.57596 v -12.17083 c -9.87455,-1.480148 -7.67291,-14.067828 -7.67291,-21.166668 0,-3.05589 -0.4204,-6.39032 0.83989,-9.26042 1.20641,-2.74741 3.86596,-4.84691 6.83302,-5.29166 v -17.4625 c -17.02308,0 -32.32297,12.77349 -36.38674,29.10416 -2.35222,9.45265 -1.18409,19.9619 -1.18409,29.633338 0,20.96061 -3.79021,45.99327 16.13958,59.70396 3.14714,2.16508 6.42582,3.90857 10.05417,5.11896 4.48876,1.4974 9.03579,2.13923 13.75833,2.11646 4.29686,-0.0207 8.67851,-0.99165 12.7,-2.46557 3.51211,-1.28723 6.78702,-3.09936 9.78959,-5.33372 18.28347,-13.60563 15.34583,-35.89101 15.34583,-55.96509 0,-19.524588 2.44802,-40.274038 -14.81667,-53.799838 -2.99352,-2.34523 -6.27042,-4.15049 -9.78958,-5.57156 -4.06686,-1.64223 -8.58303,-2.5411 -12.96458,-2.5411 m -2.11667,19.96767 c -8.06673,1.35793 -5.55625,13.55587 -5.55625,19.45524 0,2.29097 -0.37333,4.95342 0.40974,7.14375 0.9554,2.67239 3.86292,4.59293 6.73401,4.10942 8.06837,-1.35874 5.55625,-13.56884 5.55625,-19.45525 0,-2.29097 0.37333,-4.9534 -0.40974,-7.14375 -0.94731,-2.64976 -3.88859,-4.58841 -6.73401,-4.10941 z"
       id="path3" /></g></svg>
