<?xml version="1.0" encoding="UTF-8" standalone="no"?>
<!-- Created with Inkscape (http://www.inkscape.org/) -->

<svg
   width="125.86467mm"
   height="125.86469mm"
   viewBox="0 0 125.86467 125.86469"
   version="1.1"
   id="svg5"
   inkscape:version="1.2.2 (1:1.2.2+202212051552+b0a8486541)"
   sodipodi:docname="icon-contact.svg"
   xmlns:inkscape="http://www.inkscape.org/namespaces/inkscape"
   xmlns:sodipodi="http://sodipodi.sourceforge.net/DTD/sodipodi-0.dtd"
   xmlns="http://www.w3.org/2000/svg"
   xmlns:svg="http://www.w3.org/2000/svg">
  <sodipodi:namedview
     id="namedview7"
     pagecolor="#ffffff"
     bordercolor="#000000"
     borderopacity="0.25"
     inkscape:showpageshadow="2"
     inkscape:pageopacity="0.0"
     inkscape:pagecheckerboard="0"
     inkscape:deskcolor="#d1d1d1"
     inkscape:document-units="mm"
     showgrid="false"
     inkscape:zoom="0.35355339"
     inkscape:cx="432.74935"
     inkscape:cy="253.14423"
     inkscape:window-width="1846"
     inkscape:window-height="1016"
     inkscape:window-x="0"
     inkscape:window-y="0"
     inkscape:window-maximized="1"
     inkscape:current-layer="g7782" />
  <defs
     id="defs2" />
  <g
     inkscape:label="Layer 1"
     inkscape:groupmode="layer"
     id="layer1"
     transform="translate(280.16895,-703.34104)">
    <g
       id="g7782">
      <rect
         style="fill:none;stroke:none;stroke-width:5.77051;stroke-linecap:round;stroke-dasharray:none;stop-color:#000000"
         id="rect7659"
         width="125.86467"
         height="125.86467"
         x="-280.16895"
         y="703.34106"
         ry="9.3488731" />
      <g
         id="g7454"
         transform="matrix(1.1649944,0,0,1.1649944,-390.94888,-398.51883)"
         inkscape:export-filename="./icon-contact.svg"
         inkscape:export-xdpi="96"
         inkscape:export-ydpi="96"
         style="fill:#b3b3b3">
        <path
           style="fill:#b3b3b3;stroke:none;stroke-width:28.2843;stroke-linecap:round;stroke-dasharray:none;stop-color:#000000"
           d="m 549.78836,3810.7923 c -2.90974,-1.0852 -6.8773,-3.0128 -8.81678,-4.2836 -1.93947,-1.2708 -41.87911,-33.8549 -88.75474,-72.4092 -53.79363,-44.2442 -86.39936,-72.013 -88.40316,-75.2887 -4.33033,-7.0792 -4.21665,-14.8978 0.28203,-19.3965 l 3.47125,-3.4712 h 195.72635 195.72635 l 3.74205,3.468 c 6.92995,6.4224 4.13748,18.2014 -6.52279,27.514 -21.68669,18.9449 -169.90627,139.6238 -174.29004,141.9052 -7.21126,3.7528 -24.52642,4.8091 -32.16052,1.962 z"
           id="path7448"
           transform="scale(0.26458333)" />
        <path
           style="fill:#b3b3b3;stroke:none;stroke-width:28.2843;stroke-linecap:round;stroke-dasharray:none;stop-color:#000000"
           d="m 368.1406,3919.5443 c -9.33823,-4.0615 -8.9868,0.7079 -8.58576,-116.5189 l 0.36251,-105.9667 80.61017,66.3994 c 48.09239,39.6141 83.90493,68.0926 88.77773,70.5968 12.72417,6.5394 23.72682,8.8246 38.5015,7.9968 15.3499,-0.86 26.26412,-4.6213 38.18376,-13.1592 4.66691,-3.3428 42.85067,-34.388 84.85282,-68.9892 l 76.36753,-62.9114 0.36252,106.0001 c 0.40255,117.7104 0.79525,112.5629 -8.89631,116.6123 -7.10024,2.9667 -383.71051,2.9088 -390.53647,-0.06 z"
           id="path7450"
           transform="scale(0.26458333)" />
      </g>
    </g>
  </g>
</svg>
