<?xml version="1.0" encoding="UTF-8" standalone="no"?>
<!-- Created with Inkscape (http://www.inkscape.org/) -->

<svg
   width="365.08817mm"
   height="273.01218mm"
   viewBox="0 0 365.08817 273.01218"
   version="1.1"
   id="svg1"
   xml:space="preserve"
   inkscape:export-filename="bitmap.png"
   inkscape:export-xdpi="96"
   inkscape:export-ydpi="96"
   inkscape:version="1.3 (1:1.3+202307231459+0e150ed6c4)"
   sodipodi:docname="devices.svg"
   xmlns:inkscape="http://www.inkscape.org/namespaces/inkscape"
   xmlns:sodipodi="http://sodipodi.sourceforge.net/DTD/sodipodi-0.dtd"
   xmlns="http://www.w3.org/2000/svg"
   xmlns:svg="http://www.w3.org/2000/svg"><sodipodi:namedview
     id="namedview1"
     pagecolor="#ffffff"
     bordercolor="#000000"
     borderopacity="0.25"
     inkscape:showpageshadow="2"
     inkscape:pageopacity="0.0"
     inkscape:pagecheckerboard="0"
     inkscape:deskcolor="#d1d1d1"
     inkscape:document-units="mm"
     inkscape:zoom="0.18173401"
     inkscape:cx="4322.251"
     inkscape:cy="1414.1547"
     inkscape:window-width="1850"
     inkscape:window-height="1016"
     inkscape:window-x="0"
     inkscape:window-y="0"
     inkscape:window-maximized="1"
     inkscape:current-layer="layer1" /><defs
     id="defs1" /><g
     inkscape:label="Layer 1"
     inkscape:groupmode="layer"
     id="layer1"
     transform="translate(-1110.5641,-457.5526)"><path
       style="fill:#808080"
       d="m 1193.2995,730.29576 c -1.2011,-0.36053 -2.4668,-1.48299 -3.0645,-2.71772 -0.5399,-1.11515 -0.5563,-1.49793 -0.5563,-12.97177 v -11.82272 h -37.5793 c -33.2194,0 -37.6923,-0.0472 -38.5533,-0.40696 -1.3121,-0.54821 -1.9021,-1.11232 -2.4802,-2.37116 -0.4682,-1.0196 -0.4862,-4.03069 -0.4918,-82.26803 l -0.01,-81.20969 0.5546,-1.14561 c 0.3698,-0.76387 0.9285,-1.36476 1.6769,-1.80332 l 1.1223,-0.65772 h 20.2779 20.2779 l 0.072,-35.25573 0.072,-35.25573 0.7938,-1.4348 c 0.9019,-1.63028 2.232,-2.7127 3.8899,-3.16557 0.8659,-0.23651 38.1885,-0.2929 156.4476,-0.23637 l 155.3104,0.0742 1.0583,0.57109 c 1.2384,0.66823 2.2561,1.70468 2.9464,3.00079 0.4781,0.89769 0.4955,3.7573 0.5678,93.39791 0.057,70.21302 -3e-4,92.74559 -0.2364,93.60902 -0.4656,1.70273 -1.5855,3.06301 -3.1732,3.85419 l -1.3991,0.6972 h -109.085 -109.0886 v 36.74687 36.74687 l -0.7367,1.41019 c -0.5964,1.14159 -1.0053,1.5505 -2.1469,2.14688 l -1.4102,0.73669 -27.1557,-0.0227 c -14.9357,-0.0125 -27.4909,-0.12335 -27.9006,-0.2463 z m 57.498,-62.5695 v -55.69479 h -29.6334 -29.6333 v 55.69479 55.69479 h 29.6333 29.6334 z m -61.1188,-17.55317 V 608.9397 l 0.6157,-1.16609 c 0.3385,-0.64135 1.1225,-1.52328 1.742,-1.95985 l 1.1264,-0.79375 8.9736,-0.0792 8.9736,-0.0792 v -30.28175 -30.28172 h -48.1542 -48.1542 v 73.37778 c 0,40.35777 0.079,73.45715 0.1764,73.55416 0.097,0.097 16.9444,0.17639 37.4386,0.17639 h 37.2621 z m 280.7229,-94.89474 V 464.1294 h -155.3104 -155.3104 v 34.39207 34.39207 l 26.439,0.0699 c 26.3579,0.0697 26.4413,0.0716 27.186,0.62341 0.4108,0.30442 1.0148,0.9471 1.3422,1.42819 l 0.5953,0.87469 v 34.489 34.48899 h 16.5063 16.5062 l 1.4102,0.73669 c 1.1416,0.59638 1.5505,1.00529 2.1469,2.14688 l 0.7367,1.41019 v 18.62291 18.62291 h 108.876 108.876 z m -209.55,138.37714 c 0,-0.0727 6.1476,-8.5857 13.6613,-18.91771 l 13.6613,-18.78548 27.0184,0.008 27.0184,0.008 12.9646,17.8861 c 7.1305,9.83736 13.3023,18.34688 13.7151,18.91005 l 0.7505,1.02395 h -54.3948 c -29.9171,0 -54.3948,-0.0595 -54.3948,-0.13223 z"
       id="path17" /></g></svg>
