<?xml version="1.0" encoding="UTF-8" standalone="no"?>
<!-- Created with Inkscape (http://www.inkscape.org/) -->

<svg
   width="230.96291mm"
   height="132.39357mm"
   viewBox="0 0 230.96291 132.39357"
   version="1.1"
   id="svg1"
   inkscape:export-filename="laptop.svg"
   inkscape:export-xdpi="96"
   inkscape:export-ydpi="96"
   xml:space="preserve"
   xmlns:inkscape="http://www.inkscape.org/namespaces/inkscape"
   xmlns:sodipodi="http://sodipodi.sourceforge.net/DTD/sodipodi-0.dtd"
   xmlns="http://www.w3.org/2000/svg"
   xmlns:svg="http://www.w3.org/2000/svg"><sodipodi:namedview
     id="namedview1"
     pagecolor="#ffffff"
     bordercolor="#000000"
     borderopacity="0.25"
     inkscape:showpageshadow="2"
     inkscape:pageopacity="0.0"
     inkscape:pagecheckerboard="0"
     inkscape:deskcolor="#d1d1d1"
     inkscape:document-units="mm" /><defs
     id="defs1" /><g
     inkscape:label="Layer 1"
     inkscape:groupmode="layer"
     id="layer1"
     transform="translate(-295.81382,-271.90414)"><path
       style="fill:#818181;stroke:none;stroke-width:1.45187"
       d="m 312.41977,272.37672 c -8.39618,2.00042 -5.37798,17.20324 -5.37798,23.61225 v 64.53576 14.59736 c 0,2.93688 -0.10004,5.81413 2.34516,7.91581 2.97861,2.56019 7.85365,1.68774 11.48393,1.68774 h 28.42647 84.51111 26.12162 c 3.78354,0 8.64589,0.80885 12.29252,-0.24513 8.28352,-2.39419 5.37799,-17.44567 5.37799,-23.95578 V 296.3731 c 0,-5.97098 2.34158,-18.21819 -2.72516,-22.51318 -3.07505,-2.60665 -8.13702,-1.68773 -11.87222,-1.68773 h -28.42646 -83.3587 -26.12161 c -3.9904,0 -8.78659,-0.7223 -12.67667,0.20453 m 160.18698,9.01487 v 94.49879 H 312.03563 v -94.49879 h 160.57112 m 13.10112,25.63847 c -2.86684,1.21665 -1.96103,6.08922 -1.96103,8.55012 v 26.50576 29.19474 c 0,3.23118 -1.09863,8.9784 0.55961,11.83578 1.54485,2.66193 6.8312,1.60918 9.42808,1.60918 h 21.12777 c 2.79028,0 6.9784,0.77772 9.58666,-0.28515 2.91067,-1.18611 1.93758,-6.05639 1.93758,-8.55011 v -26.12162 -29.57888 c 0,-3.17451 1.12852,-9.05722 -0.45291,-11.8666 -1.48871,-2.64469 -6.98563,-1.57836 -9.53475,-1.57836 h -21.51193 c -2.64946,0 -6.7144,-0.76084 -9.17908,0.28514 m 38.37383,5.86112 v 65.68819 h -38.03001 v -65.68819 h 38.03001 m -224.72244,74.74338 c -4.72723,1.36483 -4.72723,14.71338 0,16.07821 4.06084,1.17245 9.61102,0.21993 13.8288,0.21993 h 29.96302 97.57193 33.03617 c 3.31015,0 9.95212,1.25927 12.63486,-0.93486 2.9835,-2.4401 2.76502,-13.73791 -1.1121,-15.23998 -2.91057,-1.12759 -7.28101,-0.34323 -10.37034,-0.34323 h -22.66435 -105.6389 -32.26787 c -4.55644,0 -10.59687,-1.04592 -14.98122,0.21993 z"
       id="path4" /></g></svg>
