<?xml version="1.0" encoding="UTF-8" standalone="no"?>
<!-- Created with Inkscape (http://www.inkscape.org/) -->

<svg
   width="40.97086mm"
   height="40.970852mm"
   viewBox="0 0 40.97086 40.970852"
   version="1.1"
   id="svg1"
   xml:space="preserve"
   inkscape:version="1.3 (1:1.3+202307231459+0e150ed6c4)"
   sodipodi:docname="services icons.svg"
   xmlns:inkscape="http://www.inkscape.org/namespaces/inkscape"
   xmlns:sodipodi="http://sodipodi.sourceforge.net/DTD/sodipodi-0.dtd"
   xmlns="http://www.w3.org/2000/svg"
   xmlns:svg="http://www.w3.org/2000/svg"><sodipodi:namedview
     id="namedview1"
     pagecolor="#ffffff"
     bordercolor="#000000"
     borderopacity="0.25"
     inkscape:showpageshadow="2"
     inkscape:pageopacity="0.0"
     inkscape:pagecheckerboard="0"
     inkscape:deskcolor="#d1d1d1"
     inkscape:document-units="mm"
     inkscape:zoom="0.72693603"
     inkscape:cx="-760.03937"
     inkscape:cy="559.88421"
     inkscape:window-width="1850"
     inkscape:window-height="1016"
     inkscape:window-x="0"
     inkscape:window-y="0"
     inkscape:window-maximized="1"
     inkscape:current-layer="layer1" /><defs
     id="defs1" /><g
     inkscape:label="Layer 1"
     inkscape:groupmode="layer"
     id="layer1"
     transform="translate(93.092226,-259.72848)"><circle
       style="fill:#70c2b7;fill-opacity:1;stroke-width:1.62096;stroke-linecap:round;stroke-linejoin:round;paint-order:markers fill stroke"
       id="path1-2-2-1"
       cx="-72.606796"
       cy="280.21393"
       r="20.48543"
       inkscape:export-filename="service4.svg"
       inkscape:export-xdpi="96"
       inkscape:export-ydpi="96" /><path
       style="fill:#ffffff"
       d="m -73.869092,286.42456 c -0.77171,-0.1392 -1.57734,-0.44537 -2.27459,-0.86443 l -0.68938,-0.41433 -1.48186,0.29984 c -3.20976,0.64947 -5.18675,0.59034 -5.95519,-0.17809 -0.24324,-0.24325 -0.30992,-0.37591 -0.30847,-0.61372 0.003,-0.42571 0.25507,-0.93374 0.62573,-1.25919 0.30738,-0.26988 3.58544,-1.95807 4.38892,-2.26027 l 0.40216,-0.15127 v -0.65838 c 0,-1.74218 0.65128,-3.334 1.86207,-4.55117 1.19231,-1.1986 2.71816,-1.8235 4.4456,-1.82066 1.80548,0.003 3.39996,0.70296 4.60529,2.02178 l 0.44066,0.48215 1.03302,-0.30638 c 1.9394,-0.57519 2.76376,-0.7478 3.78851,-0.79326 0.88144,-0.0391 1.02085,-0.0247 1.41879,0.14647 0.97592,0.41983 1.18629,1.04257 0.63029,1.86587 -0.43517,0.6444 -0.91804,1.06101 -2.01056,1.73469 -0.51223,0.31586 -1.17898,0.73538 -1.48167,0.93226 -0.30268,0.19689 -0.93391,0.57005 -1.40272,0.82924 l -0.8524,0.47126 -0.10209,0.4484 c -0.0562,0.24662 -0.28013,0.81035 -0.49772,1.25274 -0.33185,0.67468 -0.51918,0.92832 -1.16218,1.57354 -0.64804,0.65029 -0.89091,0.8302 -1.57089,1.16367 -0.44238,0.21695 -1.03293,0.45415 -1.31233,0.5271 -0.61792,0.16135 -1.96291,0.22605 -2.53899,0.12214 z m -7.29457,-2.75565 c 0.28613,-0.0721 1.01553,-0.29661 1.62089,-0.49878 0.60537,-0.20218 1.50072,-0.45212 1.98967,-0.55543 0.48895,-0.1033 1.3462,-0.33311 1.905,-0.51067 1.16023,-0.36867 4.37005,-1.59034 5.50333,-2.09459 0.96878,-0.43105 3.36578,-1.66351 3.81,-1.95898 0.18627,-0.12389 0.56727,-0.31516 0.84667,-0.42504 0.61456,-0.24169 1.93006,-0.94048 1.8747,-0.99584 -0.10319,-0.10319 -3.54237,0.90818 -3.49735,1.02848 0.16327,0.43627 0.1628,0.43714 -0.42829,0.78756 -0.93556,0.55464 -2.13338,1.17519 -2.90206,1.50347 -2.66985,1.14022 -5.59448,2.10962 -7.41615,2.45817 -0.81847,0.1566 -0.84036,0.15556 -0.93175,-0.0443 -0.0723,-0.15824 -0.1309,-0.14025 -1.09243,0.33555 -0.98505,0.48743 -2.0223,1.09584 -1.87489,1.09974 0.0398,10e-4 0.30654,-0.0571 0.59266,-0.12929 z"
       id="path19-4" /><circle
       style="fill:#ffffff;fill-opacity:1;stroke:none;stroke-width:0.341106;stroke-linecap:round;stroke-linejoin:round;stroke-dasharray:none;paint-order:markers fill stroke"
       id="path20-7"
       cx="-65.315941"
       cy="268.888"
       r="0.62029243" /><circle
       style="fill:#ffffff;fill-opacity:1;stroke:none;stroke-width:1.05787;stroke-linecap:round;stroke-linejoin:round;stroke-dasharray:none;paint-order:markers fill stroke"
       id="path20-9-6"
       cx="-86.338783"
       cy="277.24649"
       r="1.9237108" /><circle
       style="fill:#ffffff;fill-opacity:1;stroke:none;stroke-width:1.0035;stroke-linecap:round;stroke-linejoin:round;stroke-dasharray:none;paint-order:markers fill stroke"
       id="path21-3"
       cx="-65.964729"
       cy="292.12537"
       r="3.0529327" /></g></svg>
