<?xml version="1.0" encoding="UTF-8" standalone="no"?>
<!-- Created with Inkscape (http://www.inkscape.org/) -->

<svg
   width="40.970852mm"
   height="40.970852mm"
   viewBox="0 0 40.970852 40.970852"
   version="1.1"
   id="svg1"
   xml:space="preserve"
   inkscape:version="1.3 (1:1.3+202307231459+0e150ed6c4)"
   sodipodi:docname="service3.svg"
   xmlns:inkscape="http://www.inkscape.org/namespaces/inkscape"
   xmlns:sodipodi="http://sodipodi.sourceforge.net/DTD/sodipodi-0.dtd"
   xmlns="http://www.w3.org/2000/svg"
   xmlns:svg="http://www.w3.org/2000/svg"><sodipodi:namedview
     id="namedview1"
     pagecolor="#ffffff"
     bordercolor="#000000"
     borderopacity="0.25"
     inkscape:showpageshadow="2"
     inkscape:pageopacity="0.0"
     inkscape:pagecheckerboard="0"
     inkscape:deskcolor="#d1d1d1"
     inkscape:document-units="mm"
     inkscape:zoom="1.4538721"
     inkscape:cx="69.813571"
     inkscape:cy="127.24641"
     inkscape:window-width="1850"
     inkscape:window-height="1016"
     inkscape:window-x="0"
     inkscape:window-y="0"
     inkscape:window-maximized="1"
     inkscape:current-layer="layer1" /><defs
     id="defs1" /><g
     inkscape:label="Layer 1"
     inkscape:groupmode="layer"
     id="layer1"
     transform="translate(181.41053,-259.72848)"><circle
       style="fill:#70c2b7;fill-opacity:1;stroke-width:1.62096;stroke-linecap:round;stroke-linejoin:round;paint-order:markers fill stroke"
       id="path1-2-5-1"
       cx="-160.92511"
       cy="280.21393"
       r="20.48543"
       inkscape:export-filename="service3.svg"
       inkscape:export-xdpi="96"
       inkscape:export-ydpi="96" /><path
       style="fill:none;stroke:#ffffff;stroke-width:0.79375;stroke-dasharray:none"
       d="m -164.17687,292.61417 c -1.25121,-0.1596 -1.94518,-0.54873 -3.20785,-1.79871 l -0.80349,-0.79542 -0.90805,-0.0453 c -0.49943,-0.0249 -1.18432,-0.0642 -1.52198,-0.0874 l -0.61392,-0.0422 v -5.67224 -5.67225 l 0.83717,0.0313 c 0.67412,0.0252 0.96565,5.6e-4 1.49688,-0.12608 1.31816,-0.31455 2.60254,-1.14312 3.60111,-2.32315 0.27595,-0.32609 0.74411,-0.7761 1.04037,-1.00002 0.67357,-0.5091 0.89266,-0.87494 1.28973,-2.15364 0.68216,-2.19672 1.17085,-3.36069 1.75941,-4.19051 0.79806,-1.1252 1.59453,-1.27068 2.38437,-0.43554 1.18173,1.24951 1.75474,4.16603 1.18667,6.03994 -0.25187,0.83086 -0.47911,1.37269 -0.69439,1.65573 -0.10117,0.13302 -0.17226,0.24185 -0.15798,0.24185 0.0143,0 1.28627,-0.0993 2.82664,-0.2207 3.1163,-0.24556 3.14505,-0.24397 3.86785,0.21451 0.89876,0.5701 1.36407,1.99614 1.10292,3.38016 -0.19102,1.01239 -0.86777,1.68624 -1.69348,1.68624 h -0.33478 l 0.36188,0.24185 c 0.27,0.18044 0.41856,0.3552 0.58512,0.68834 0.21106,0.4221 0.2232,0.49525 0.2224,1.33946 -8.5e-4,0.77149 -0.024,0.94348 -0.17107,1.26413 -0.31438,0.68547 -0.66276,0.93111 -1.32056,0.93111 h -0.42084 l 0.23171,0.21645 c 0.53263,0.49755 0.67308,1.38234 0.37344,2.35248 -0.21994,0.71208 -0.67145,1.15646 -1.39981,1.37769 l -0.52907,0.1607 v 0.34919 c 0,0.42452 -0.17692,1.13355 -0.34798,1.39463 -0.17582,0.26834 -0.16556,0.91735 -1.37766,1.22408 -0.31433,0.0795 -0.7464,0.10958 -1.61849,0.0985 -0.77773,-0.01 -1.52612,0.0288 -2.15803,0.11164 -1.12181,0.14699 -3.16532,-0.34473 -3.88824,-0.43695 z"
       id="path16-4"
       sodipodi:nodetypes="cscsscccscsssssssssssscsscsscssscssscccc" /></g></svg>
