<?xml version="1.0" encoding="UTF-8" standalone="no"?>
<!-- Created with Inkscape (http://www.inkscape.org/) -->

<svg
   width="40.970867mm"
   height="40.970852mm"
   viewBox="0 0 40.970867 40.970852"
   version="1.1"
   id="svg1"
   xml:space="preserve"
   inkscape:version="1.3.2 (1:1.3.2+202311252150+091e20ef0f)"
   sodipodi:docname="service2.svg"
   xmlns:inkscape="http://www.inkscape.org/namespaces/inkscape"
   xmlns:sodipodi="http://sodipodi.sourceforge.net/DTD/sodipodi-0.dtd"
   xmlns="http://www.w3.org/2000/svg"
   xmlns:svg="http://www.w3.org/2000/svg"><sodipodi:namedview
     id="namedview1"
     pagecolor="#ffffff"
     bordercolor="#000000"
     borderopacity="0.25"
     inkscape:showpageshadow="2"
     inkscape:pageopacity="0.0"
     inkscape:pagecheckerboard="0"
     inkscape:deskcolor="#d1d1d1"
     inkscape:document-units="mm"
     inkscape:zoom="2.0560856"
     inkscape:cx="50.581552"
     inkscape:cy="89.976799"
     inkscape:window-width="1850"
     inkscape:window-height="1016"
     inkscape:window-x="0"
     inkscape:window-y="0"
     inkscape:window-maximized="1"
     inkscape:current-layer="layer1" /><defs
     id="defs1" /><g
     inkscape:label="Layer 1"
     inkscape:groupmode="layer"
     id="layer1"
     transform="translate(267.26069,-259.72848)"><path
       style="fill:#000000"
       id="path55" /><path
       style="fill:#6fc1b7;stroke:none;stroke-width:0.126431"
       d="m -247.47014,259.73285 c -1.47569,0.19374 -2.92513,0.23488 -4.38214,0.61751 -4.89712,1.28605 -9.24386,4.28947 -12.04244,8.534 -4.92251,7.46587 -4.41464,17.56357 1.31907,24.45305 1.4032,1.68605 3.07478,3.13649 4.93626,4.29596 1.81721,1.1319 3.83493,2.00336 5.92092,2.49856 2.48943,0.59098 5.05628,0.75521 7.59348,0.42158 4.22135,-0.55509 8.22394,-2.44308 11.34006,-5.34581 3.98582,-3.71288 6.3559,-9.04383 6.4891,-14.48151 0.22747,-9.28633 -6.10036,-17.84292 -15.08613,-20.27666 -1.50456,-0.4075 -3.02896,-0.63069 -4.58286,-0.69874 -0.49358,-0.0216 -1.01167,-0.0828 -1.50532,-0.0179 m 2.27471,7.54584 v 0.90319 c 1.26127,0.0104 2.6693,0.57381 3.78002,1.12909 4.21802,2.10874 6.96315,6.61488 6.75588,11.34832 -0.26658,6.08813 -5.39733,11.66449 -11.67325,11.67457 -1.55874,0.003 -3.07111,-0.16605 -4.54941,-0.69218 -3.82027,-1.35965 -6.8296,-4.67829 -7.73896,-8.64079 -1.24188,-5.41142 1.36154,-11.15351 6.36745,-13.65646 1.13061,-0.56531 2.56192,-1.15191 3.84692,-1.16255 v -0.90319 c -0.25779,0 -0.60216,0.0606 -0.83616,-0.0642 -0.40731,-0.21719 -0.46189,-0.84719 -0.0665,-1.10759 0.31961,-0.21049 0.80717,-0.1328 1.17029,-0.1328 h 2.4085 c 0.40409,0 0.881,-0.068 1.27116,0.0543 0.47432,0.14872 0.59301,0.82223 0.19759,1.1286 -0.2489,0.19284 -0.63819,0.1217 -0.93352,0.1217 m -2.37506,1.78713 c -2.26385,0.29725 -4.28893,0.91311 -6.12162,2.3416 -1.11989,0.8729 -2.06898,1.96625 -2.77648,3.19715 -2.89848,5.04276 -1.36599,11.55994 3.41205,14.85161 1.03923,0.71594 2.22756,1.22741 3.44551,1.5485 1.41481,0.37299 2.90285,0.43943 4.34869,0.24931 1.5873,-0.20871 3.08928,-0.78864 4.44905,-1.62337 1.0431,-0.64033 1.96736,-1.49544 2.72966,-2.44829 3.86075,-4.82583 2.98561,-12.23887 -2.02718,-15.93179 -1.07194,-0.7897 -2.26566,-1.39511 -3.54585,-1.76405 -1.2225,-0.35231 -2.63977,-0.58796 -3.91383,-0.42067 m 1.37151,12.53011 c 0.65663,0.15597 1.32477,0.54863 1.94019,0.82607 1.14316,0.51535 2.2985,1.00411 3.4455,1.51087 0.37798,0.16699 0.91227,0.30224 1.23056,0.56666 0.17943,0.14906 0.20006,0.43499 0.033,0.60117 -0.30175,0.30012 -0.89337,-0.1088 -1.19664,-0.24072 -1.12815,-0.49074 -2.24821,-1.00055 -3.37861,-1.48609 -0.76092,-0.32683 -1.51431,-0.67105 -2.2747,-0.99918 -0.31865,-0.13751 -0.79614,-0.25913 -1.01059,-0.54596 -0.16251,-0.21736 -0.12676,-0.47852 -0.12676,-0.73459 v -1.40496 -5.72021 -3.3117 c 0,-0.46005 -0.0188,-1.00725 0.56868,-1.09383 0.88099,-0.12984 0.80283,0.89439 0.80283,1.4618 v 5.28534 3.5124 c 0,0.5614 0.0967,1.22625 -0.0335,1.77293 z"
       id="path56" /></g></svg>
