<?xml version="1.0" encoding="UTF-8" standalone="no"?>
<!-- Created with Inkscape (http://www.inkscape.org/) -->

<svg
   width="40.970852mm"
   height="40.970852mm"
   viewBox="0 0 40.970852 40.970852"
   version="1.1"
   id="svg1"
   xml:space="preserve"
   inkscape:version="1.3.2 (1:1.3.2+202311252150+091e20ef0f)"
   sodipodi:docname="service1.svg"
   xmlns:inkscape="http://www.inkscape.org/namespaces/inkscape"
   xmlns:sodipodi="http://sodipodi.sourceforge.net/DTD/sodipodi-0.dtd"
   xmlns="http://www.w3.org/2000/svg"
   xmlns:svg="http://www.w3.org/2000/svg"><sodipodi:namedview
     id="namedview1"
     pagecolor="#ffffff"
     bordercolor="#000000"
     borderopacity="0.25"
     inkscape:showpageshadow="2"
     inkscape:pageopacity="0.0"
     inkscape:pagecheckerboard="0"
     inkscape:deskcolor="#d1d1d1"
     inkscape:document-units="mm"
     inkscape:zoom="4.1121712"
     inkscape:cx="69.792815"
     inkscape:cy="72.22462"
     inkscape:window-width="1850"
     inkscape:window-height="1016"
     inkscape:window-x="0"
     inkscape:window-y="0"
     inkscape:window-maximized="1"
     inkscape:current-layer="layer1" /><defs
     id="defs1"><inkscape:path-effect
       effect="powerclip"
       id="path-effect1"
       is_visible="true"
       lpeversion="1"
       inverse="true"
       flatten="false"
       hide_clip="false"
       message="Use fill-rule evenodd on &lt;b&gt;fill and stroke&lt;/b&gt; dialog if no flatten result after convert clip to paths." /><clipPath
       clipPathUnits="userSpaceOnUse"
       id="clipPath1"><path
         style="display:none;fill:#ffffff;stroke:none;stroke-width:0.196227"
         d="m -350.50575,271.33104 c -1.13477,0.27036 -0.72685,2.32509 -0.72685,3.1913 v 8.72228 1.97289 c 0,0.39693 -0.0136,0.78581 0.31696,1.06986 0.40256,0.34602 1.06145,0.2281 1.5521,0.2281 h 3.84195 11.42204 3.53045 c 0.51136,0 1.16852,0.1093 1.66138,-0.0332 1.11955,-0.32358 0.72686,-2.35785 0.72686,-3.23771 v -8.67037 c 0,-0.80701 0.31648,-2.46228 -0.36832,-3.04276 -0.4156,-0.35229 -1.09974,-0.22811 -1.60459,-0.22811 h -3.84194 -11.26628 -3.53045 c -0.53932,0 -1.18755,-0.0976 -1.71331,0.0276 m 21.64995,1.2184 v 12.77192 h -21.70187 v -12.77192 h 21.70187 m 1.77068,3.46515 c -0.38748,0.16444 -0.26505,0.82299 -0.26505,1.15559 v 3.58237 3.94579 c 0,0.43671 -0.14848,1.21347 0.0756,1.59966 0.20879,0.35977 0.92327,0.21748 1.27425,0.21748 h 2.85551 c 0.37711,0 0.94316,0.10511 1.29567,-0.0385 0.39339,-0.16031 0.26188,-0.81855 0.26188,-1.15558 v -3.53044 -3.99772 c 0,-0.42905 0.15252,-1.22413 -0.0612,-1.60383 -0.20121,-0.35743 -0.94413,-0.2133 -1.28866,-0.2133 h -2.90743 c -0.35809,0 -0.90748,-0.10284 -1.24059,0.0385 m 5.18639,0.79216 v 8.87804 h -5.13992 v -8.87804 h 5.13992 m -30.3722,10.10189 c -0.6389,0.18447 -0.6389,1.98857 0,2.17304 0.54884,0.15845 1.29897,0.0297 1.86902,0.0297 h 4.04963 13.18727 4.46497 c 0.44738,0 1.34508,0.1702 1.70766,-0.12639 0.40323,-0.32979 0.37371,-1.85673 -0.15031,-2.05975 -0.39338,-0.1524 -0.98406,-0.0464 -1.40159,-0.0464 h -3.06318 -14.27755 -4.36114 c -0.61582,0 -1.43221,-0.14137 -2.02478,0.0297 z"
         id="path1" /><path
         id="lpe_path-effect1"
         style="fill:#ffffff;stroke:none;stroke-width:0.196227"
         class="powerclip"
         d="m -362.62773,254.7285 h 50.97086 v 50.97086 h -50.97086 z m 12.12198,16.60254 c -1.13477,0.27036 -0.72685,2.32509 -0.72685,3.1913 v 8.72228 1.97289 c 0,0.39693 -0.0136,0.78581 0.31696,1.06986 0.40256,0.34602 1.06145,0.2281 1.5521,0.2281 h 3.84195 11.42204 3.53045 c 0.51136,0 1.16852,0.1093 1.66138,-0.0332 1.11955,-0.32358 0.72686,-2.35785 0.72686,-3.23771 v -8.67037 c 0,-0.80701 0.31648,-2.46228 -0.36832,-3.04276 -0.4156,-0.35229 -1.09974,-0.22811 -1.60459,-0.22811 h -3.84194 -11.26628 -3.53045 c -0.53932,0 -1.18755,-0.0976 -1.71331,0.0276 m 21.64995,1.2184 h -21.70187 v 12.77192 h 21.70187 v -12.77192 m 1.77068,3.46515 c -0.38748,0.16444 -0.26505,0.82299 -0.26505,1.15559 v 3.58237 3.94579 c 0,0.43671 -0.14848,1.21347 0.0756,1.59966 0.20879,0.35977 0.92327,0.21748 1.27425,0.21748 h 2.85551 c 0.37711,0 0.94316,0.10511 1.29567,-0.0385 0.39339,-0.16031 0.26188,-0.81855 0.26188,-1.15558 v -3.53044 -3.99772 c 0,-0.42905 0.15252,-1.22413 -0.0612,-1.60383 -0.20121,-0.35743 -0.94413,-0.2133 -1.28866,-0.2133 h -2.90743 c -0.35809,0 -0.90748,-0.10284 -1.24059,0.0385 m 5.18639,0.79216 h -5.13992 v 8.87804 h 5.13992 v -8.87804 m -30.3722,10.10189 c -0.6389,0.18447 -0.6389,1.98857 0,2.17304 0.54884,0.15845 1.29897,0.0297 1.86902,0.0297 h 4.04963 13.18727 4.46497 c 0.44738,0 1.34508,0.1702 1.70766,-0.12639 0.40323,-0.32979 0.37371,-1.85673 -0.15031,-2.05975 -0.39338,-0.1524 -0.98406,-0.0464 -1.40159,-0.0464 h -3.06318 -14.27755 -4.36114 c -0.61582,0 -1.43221,-0.14137 -2.02478,0.0297 z" /></clipPath></defs><g
     inkscape:label="Layer 1"
     inkscape:groupmode="layer"
     id="layer1"
     transform="translate(357.62772,-259.72848)"><path
       style="fill:#70c2b7;fill-opacity:1;stroke-width:1.62096;stroke-linecap:round;stroke-linejoin:round;paint-order:markers fill stroke"
       id="path1-3"
       inkscape:export-filename="service1.svg"
       inkscape:export-xdpi="96"
       inkscape:export-ydpi="96"
       clip-path="url(#clipPath1)"
       inkscape:path-effect="#path-effect1"
       sodipodi:type="arc"
       sodipodi:cx="-337.1423"
       sodipodi:cy="280.21393"
       sodipodi:rx="20.48543"
       sodipodi:ry="20.48543"
       d="m -316.65687,280.21393 a 20.48543,20.48543 0 0 1 -20.48543,20.48543 20.48543,20.48543 0 0 1 -20.48543,-20.48543 20.48543,20.48543 0 0 1 20.48543,-20.48543 20.48543,20.48543 0 0 1 20.48543,20.48543 z" /></g></svg>
