<?xml version="1.0" encoding="UTF-8" standalone="no"?>
<!-- Created with Inkscape (http://www.inkscape.org/) -->

<svg
   width="40.970852mm"
   height="40.970852mm"
   viewBox="0 0 40.970852 40.970852"
   version="1.1"
   id="svg1"
   xml:space="preserve"
   inkscape:version="1.3.2 (1:1.3.2+202311252150+091e20ef0f)"
   sodipodi:docname="service3.svg"
   xmlns:inkscape="http://www.inkscape.org/namespaces/inkscape"
   xmlns:sodipodi="http://sodipodi.sourceforge.net/DTD/sodipodi-0.dtd"
   xmlns="http://www.w3.org/2000/svg"
   xmlns:svg="http://www.w3.org/2000/svg"><sodipodi:namedview
     id="namedview1"
     pagecolor="#ffffff"
     bordercolor="#000000"
     borderopacity="0.25"
     inkscape:showpageshadow="2"
     inkscape:pageopacity="0.0"
     inkscape:pagecheckerboard="0"
     inkscape:deskcolor="#d1d1d1"
     inkscape:document-units="mm"
     inkscape:zoom="2.9077442"
     inkscape:cx="50.210744"
     inkscape:cy="110.05095"
     inkscape:window-width="1850"
     inkscape:window-height="1016"
     inkscape:window-x="0"
     inkscape:window-y="0"
     inkscape:window-maximized="1"
     inkscape:current-layer="layer1" /><defs
     id="defs1"><inkscape:path-effect
       effect="powerclip"
       id="path-effect3"
       is_visible="true"
       lpeversion="1"
       inverse="true"
       flatten="false"
       hide_clip="false"
       message="Use fill-rule evenodd on &lt;b&gt;fill and stroke&lt;/b&gt; dialog if no flatten result after convert clip to paths." /><clipPath
       clipPathUnits="userSpaceOnUse"
       id="clipPath3"><path
         style="color:#000000;display:none;fill:#ffffff;stroke-width:1;-inkscape-stroke:none"
         d="m -160.08398,267.39453 c -0.55272,0.10096 -1.01687,0.5084 -1.44727,1.11524 -0.6299,0.8881 -1.12815,2.09071 -1.81445,4.30078 -0.19559,0.62984 -0.34264,1.01326 -0.50196,1.27929 -0.15932,0.26604 -0.33162,0.43633 -0.64843,0.67578 -0.33987,0.25688 -0.80089,0.70294 -1.10352,1.06055 -0.94934,1.12186 -2.16891,1.90182 -3.39062,2.19336 -0.51067,0.12174 -0.73043,0.13992 -1.39063,0.11524 l -1.24805,-0.0469 v 6.08594 6.04101 l 0.98438,0.0684 c 0.34369,0.0236 1.02715,0.0629 1.5293,0.0879 l 0.75586,0.0371 0.69531,0.68946 c 1.28507,1.27215 2.12424,1.74264 3.4375,1.91015 0.32019,0.0408 1.02876,0.18853 1.7832,0.30664 0.75444,0.11812 1.55882,0.2158 2.20703,0.13086 0.6077,-0.0797 1.3403,-0.11916 2.10156,-0.10937 0.88288,0.0112 1.34563,-0.0145 1.72071,-0.10938 0.67084,-0.16976 1.07507,-0.46817 1.30078,-0.77734 0.2257,-0.30918 0.30496,-0.60671 0.31055,-0.61524 0.14141,-0.21583 0.21933,-0.47051 0.29101,-0.75781 0.0717,-0.28729 0.12305,-0.58612 0.12305,-0.85351 v -0.0547 l 0.24609,-0.0762 c 0.82613,-0.25093 1.41267,-0.8267 1.66406,-1.64063 0.27683,-0.89628 0.1403,-1.72995 -0.2832,-2.36719 0.26147,-0.0335 0.52875,-0.0554 0.73828,-0.20312 0.2889,-0.2037 0.48925,-0.50396 0.66211,-0.88086 0.0815,-0.17759 0.14453,-0.35951 0.17383,-0.57617 0.0293,-0.21666 0.0328,-0.46384 0.0332,-0.85352 5.3e-4,-0.42402 5.3e-4,-0.6653 -0.0371,-0.89258 -0.0377,-0.22727 -0.11829,-0.40847 -0.22656,-0.625 -0.1231,-0.24621 -0.30723,-0.39472 -0.48047,-0.5625 0.77986,-0.23886 1.41993,-0.86077 1.59766,-1.80273 0.28628,-1.51723 -0.18202,-3.0918 -1.28125,-3.78906 -0.36324,-0.23041 -0.68293,-0.40149 -1.22656,-0.43164 -0.54364,-0.0301 -1.32646,0.0354 -2.88477,0.1582 -1.17423,0.0925 -1.71545,0.1337 -2.13086,0.16602 0.19213,-0.35386 0.37584,-0.69694 0.56836,-1.33204 0.31137,-1.02711 0.30249,-2.27544 0.0723,-3.44726 -0.23023,-1.17182 -0.67678,-2.26698 -1.35157,-2.98047 -0.44858,-0.47431 -0.99611,-0.73768 -1.54882,-0.63672 z m 0.14257,0.78125 c 0.2425,-0.0443 0.48883,0.0396 0.83008,0.40039 0.50695,0.53602 0.93875,1.52255 1.14844,2.58985 0.20969,1.06729 0.20397,2.2157 -0.0527,3.0625 -0.24655,0.81327 -0.48186,1.33339 -0.63086,1.52929 -0.055,0.0724 -0.10178,0.13884 -0.13868,0.19531 -0.0184,0.0282 -0.0334,0.0498 -0.0527,0.0879 -0.01,0.019 -0.0228,0.0338 -0.0391,0.10156 -0.004,0.017 -0.01,0.0697 -0.01,0.0703 -4e-5,6.1e-4 0.0155,0.1363 0.0156,0.13672 6e-5,2.1e-4 0.0468,0.10336 0.0469,0.10351 1e-4,1.6e-4 0.0975,0.10537 0.0977,0.10547 1.4e-4,1.1e-4 0.12677,0.0625 0.12695,0.0625 1.8e-4,6e-5 0.11111,0.0156 0.11133,0.0156 0.0143,0 1.31689,-0.0993 2.85742,-0.2207 1.55799,-0.12277 2.34683,-0.18013 2.77734,-0.15625 0.43052,0.0239 0.48614,0.0825 0.84571,0.31054 0.69829,0.44294 1.16179,1.7199 0.92578,2.97071 -0.1653,0.87609 -0.69295,1.36328 -1.30274,1.36328 h -1.64257 l 1.44922,0.96875 c 0.22749,0.15203 0.30199,0.23679 0.45117,0.53515 0.10279,0.20557 0.13339,0.27256 0.15429,0.39844 0.0209,0.12588 0.0258,0.34348 0.0254,0.76367 -5.3e-4,0.38181 -0.008,0.60568 -0.0273,0.74805 -0.0192,0.14237 -0.0418,0.20851 -0.10742,0.35156 -0.14152,0.30857 -0.27205,0.47201 -0.40039,0.5625 -0.12834,0.0905 -0.2791,0.13672 -0.5586,0.13672 h -1.42773 l 0.9668,0.90234 c 0.38654,0.36109 0.53486,1.0736 0.26562,1.94532 -0.18848,0.61023 -0.50613,0.9237 -1.13672,1.11523 l -0.81054,0.24609 v 0.64454 c 0,0.15712 -0.0381,0.42348 -0.0977,0.66211 -0.0595,0.23862 -0.1559,0.46842 -0.18555,0.51367 -0.17023,0.25981 -0.17291,0.42293 -0.28906,0.58203 -0.11614,0.1591 -0.31226,0.33959 -0.85351,0.47656 -0.25359,0.0641 -0.65433,0.0969 -1.51563,0.0859 -0.7942,-0.0102 -1.55873,0.0292 -2.21484,0.11523 -0.4736,0.0621 -1.25198,-0.0149 -1.98047,-0.1289 -0.7285,-0.11406 -1.40392,-0.25722 -1.80664,-0.3086 -1.18916,-0.15168 -1.73825,-0.4597 -2.97852,-1.6875 l -0.91211,-0.90234 -1.05859,-0.0527 c -0.49671,-0.0248 -1.184,-0.0632 -1.51563,-0.0859 l -0.24414,-0.0176 v -5.30078 -5.26172 l 0.42578,0.0156 c 0.68804,0.0257 1.05173,-0.005 1.60352,-0.13671 1.4146,-0.33757 2.76471,-1.21298 3.8125,-2.45118 0.24927,-0.29456 0.72391,-0.75044 0.97656,-0.9414 0.35675,-0.26964 0.63173,-0.53656 0.84961,-0.90039 0.21789,-0.36384 0.37859,-0.80232 0.58008,-1.45118 0.67801,-2.18336 1.15786,-3.30659 1.70508,-4.07812 0.36765,-0.51837 0.69891,-0.74867 0.9414,-0.79297 z"
         id="path3" /><path
         id="lpe_path-effect3"
         style="color:#000000;fill:#ffffff;stroke-width:1;-inkscape-stroke:none"
         class="powerclip"
         d="m -186.41054,254.7285 h 50.97086 v 50.97086 h -50.97086 z m 26.32656,12.66603 c -0.55272,0.10096 -1.01687,0.5084 -1.44727,1.11524 -0.6299,0.8881 -1.12815,2.09071 -1.81445,4.30078 -0.19559,0.62984 -0.34264,1.01326 -0.50196,1.27929 -0.15932,0.26604 -0.33162,0.43633 -0.64843,0.67578 -0.33987,0.25688 -0.80089,0.70294 -1.10352,1.06055 -0.94934,1.12186 -2.16891,1.90182 -3.39062,2.19336 -0.51067,0.12174 -0.73043,0.13992 -1.39063,0.11524 l -1.24805,-0.0469 v 6.08594 6.04101 l 0.98438,0.0684 c 0.34369,0.0236 1.02715,0.0629 1.5293,0.0879 l 0.75586,0.0371 0.69531,0.68946 c 1.28507,1.27215 2.12424,1.74264 3.4375,1.91015 0.32019,0.0408 1.02876,0.18853 1.7832,0.30664 0.75444,0.11812 1.55882,0.2158 2.20703,0.13086 0.6077,-0.0797 1.3403,-0.11916 2.10156,-0.10937 0.88288,0.0112 1.34563,-0.0145 1.72071,-0.10938 0.67084,-0.16976 1.07507,-0.46817 1.30078,-0.77734 0.2257,-0.30918 0.30496,-0.60671 0.31055,-0.61524 0.14141,-0.21583 0.21933,-0.47051 0.29101,-0.75781 0.0717,-0.28729 0.12305,-0.58612 0.12305,-0.85351 v -0.0547 l 0.24609,-0.0762 c 0.82613,-0.25093 1.41267,-0.8267 1.66406,-1.64063 0.27683,-0.89628 0.1403,-1.72995 -0.2832,-2.36719 0.26147,-0.0335 0.52875,-0.0554 0.73828,-0.20312 0.2889,-0.2037 0.48925,-0.50396 0.66211,-0.88086 0.0815,-0.17759 0.14453,-0.35951 0.17383,-0.57617 0.0293,-0.21666 0.0328,-0.46384 0.0332,-0.85352 5.3e-4,-0.42402 5.3e-4,-0.6653 -0.0371,-0.89258 -0.0377,-0.22727 -0.11829,-0.40847 -0.22656,-0.625 -0.1231,-0.24621 -0.30723,-0.39472 -0.48047,-0.5625 0.77986,-0.23886 1.41993,-0.86077 1.59766,-1.80273 0.28628,-1.51723 -0.18202,-3.0918 -1.28125,-3.78906 -0.36324,-0.23041 -0.68293,-0.40149 -1.22656,-0.43164 -0.54364,-0.0301 -1.32646,0.0354 -2.88477,0.1582 -1.17423,0.0925 -1.71545,0.1337 -2.13086,0.16602 0.19213,-0.35386 0.37584,-0.69694 0.56836,-1.33204 0.31137,-1.02711 0.30249,-2.27544 0.0723,-3.44726 -0.23023,-1.17182 -0.67678,-2.26698 -1.35157,-2.98047 -0.44858,-0.47431 -0.99611,-0.73768 -1.54882,-0.63672 z m 0.14257,0.78125 -1.6e-4,-5e-5 c -0.24249,0.0443 -0.57375,0.2746 -0.9414,0.79297 -0.54722,0.77153 -1.02707,1.89476 -1.70508,4.07812 -0.20149,0.64886 -0.36219,1.08734 -0.58008,1.45118 -0.21788,0.36383 -0.49286,0.63075 -0.84961,0.90039 -0.25265,0.19096 -0.72729,0.64684 -0.97656,0.9414 -1.04779,1.2382 -2.3979,2.11361 -3.8125,2.45118 -0.55179,0.13171 -0.91548,0.16241 -1.60352,0.13671 l -0.42578,-0.0156 v 5.26172 5.30078 l 0.24414,0.0176 c 0.33163,0.0227 1.01892,0.0611 1.51563,0.0859 l 1.05859,0.0527 0.91211,0.90234 c 1.24027,1.2278 1.78936,1.53582 2.97852,1.6875 0.40272,0.0514 1.07814,0.19454 1.80664,0.3086 0.72849,0.114 1.50687,0.191 1.98047,0.1289 0.65611,-0.086 1.42064,-0.12543 2.21484,-0.11523 0.8613,0.011 1.26204,-0.0218 1.51563,-0.0859 0.54125,-0.13697 0.73737,-0.31746 0.85351,-0.47656 0.11615,-0.1591 0.11883,-0.32222 0.28906,-0.58203 0.0297,-0.0452 0.12605,-0.27505 0.18555,-0.51367 0.0596,-0.23863 0.0977,-0.50499 0.0977,-0.66211 v -0.64454 l 0.81054,-0.24609 c 0.63059,-0.19153 0.94824,-0.505 1.13672,-1.11523 0.26924,-0.87172 0.12092,-1.58423 -0.26562,-1.94532 l -0.9668,-0.90234 h 1.42773 c 0.2795,0 0.43026,-0.0462 0.5586,-0.13672 0.12834,-0.0905 0.25887,-0.25393 0.40039,-0.5625 0.0656,-0.14305 0.0882,-0.20919 0.10742,-0.35156 0.0193,-0.14237 0.0268,-0.36624 0.0273,-0.74805 4e-4,-0.42019 -0.005,-0.63779 -0.0254,-0.76367 -0.0209,-0.12588 -0.0515,-0.19287 -0.15429,-0.39844 -0.14918,-0.29836 -0.22368,-0.38312 -0.45117,-0.53515 l -1.44922,-0.96875 h 1.64257 c 0.60979,0 1.13744,-0.48719 1.30274,-1.36328 0.23601,-1.25081 -0.22749,-2.52777 -0.92578,-2.97071 -0.35957,-0.22804 -0.41519,-0.28664 -0.84571,-0.31054 -0.43051,-0.0239 -1.21935,0.0335 -2.77734,0.15625 -1.54053,0.1214 -2.84312,0.2207 -2.85742,0.2207 -2.2e-4,0 -0.11115,-0.0155 -0.11133,-0.0156 -1.8e-4,0 -0.12681,-0.0624 -0.12695,-0.0625 -2e-4,-1e-4 -0.0976,-0.10531 -0.0977,-0.10547 -1e-4,-1.5e-4 -0.0468,-0.1033 -0.0469,-0.10351 -1e-4,-4.2e-4 -0.0156,-0.13611 -0.0156,-0.13672 0,-6e-4 0.006,-0.0533 0.01,-0.0703 0.0163,-0.0678 0.0291,-0.0826 0.0391,-0.10156 0.0193,-0.0381 0.0343,-0.0597 0.0527,-0.0879 0.0369,-0.0565 0.0837,-0.12291 0.13868,-0.19531 0.149,-0.1959 0.38431,-0.71602 0.63086,-1.52929 0.25667,-0.8468 0.26239,-1.99521 0.0527,-3.0625 -0.20969,-1.0673 -0.64149,-2.05383 -1.14844,-2.58985 -0.34125,-0.36079 -0.58758,-0.44469 -0.83008,-0.40039 z" /></clipPath></defs><g
     inkscape:label="Layer 1"
     inkscape:groupmode="layer"
     id="layer1"
     transform="translate(181.41053,-259.72848)"><path
       style="fill:#70c2b7;fill-opacity:1;stroke-width:1.62096;stroke-linecap:round;stroke-linejoin:round;paint-order:markers fill stroke"
       id="path1-2-5-1"
       inkscape:export-filename="service3.svg"
       inkscape:export-xdpi="96"
       inkscape:export-ydpi="96"
       clip-path="url(#clipPath3)"
       inkscape:path-effect="#path-effect3"
       sodipodi:type="arc"
       sodipodi:cx="-160.92511"
       sodipodi:cy="280.21393"
       sodipodi:rx="20.48543"
       sodipodi:ry="20.48543"
       d="m -140.43968,280.21393 a 20.48543,20.48543 0 0 1 -20.48543,20.48543 20.48543,20.48543 0 0 1 -20.48543,-20.48543 20.48543,20.48543 0 0 1 20.48543,-20.48543 20.48543,20.48543 0 0 1 20.48543,20.48543 z" /></g></svg>
