<?xml version="1.0" encoding="UTF-8" standalone="no"?>
<!-- Created with Inkscape (http://www.inkscape.org/) -->

<svg
   width="13.213421mm"
   height="13.212954mm"
   viewBox="0 0 13.213421 13.212954"
   version="1.1"
   id="svg1"
   xml:space="preserve"
   inkscape:version="1.3.2 (091e20e, 2023-11-25)"
   sodipodi:docname="linkedin cover w  links.svg"
   xmlns:inkscape="http://www.inkscape.org/namespaces/inkscape"
   xmlns:sodipodi="http://sodipodi.sourceforge.net/DTD/sodipodi-0.dtd"
   xmlns="http://www.w3.org/2000/svg"
   xmlns:svg="http://www.w3.org/2000/svg"><sodipodi:namedview
     id="namedview1"
     pagecolor="#ffffff"
     bordercolor="#000000"
     borderopacity="0.25"
     inkscape:showpageshadow="2"
     inkscape:pageopacity="0.0"
     inkscape:pagecheckerboard="0"
     inkscape:deskcolor="#d1d1d1"
     inkscape:document-units="mm"
     inkscape:zoom="0.72693602"
     inkscape:cx="432.6378"
     inkscape:cy="1423.7842"
     inkscape:window-width="1854"
     inkscape:window-height="1011"
     inkscape:window-x="0"
     inkscape:window-y="0"
     inkscape:window-maximized="1"
     inkscape:current-layer="layer1" /><defs
     id="defs1"><style
       type="text/css"
       id="style1">
   <![CDATA[
    .fil2 {fill:none}
    .fil0 {fill:#424242}
    .fil1 {fill:#424242;fill-rule:nonzero}
   ]]>
  </style></defs><g
     inkscape:label="Layer 1"
     inkscape:groupmode="layer"
     id="layer1"
     transform="translate(-191.43897,-565.12596)"><path
       d="m 197.61276,565.12943 c -0.0284,0.003 -0.11883,0.0116 -0.2002,0.0181 -1.87667,0.16917 -3.63454,1.18163 -4.74789,2.73777 -0.61996,0.86525 -1.01649,1.8467 -1.1663,2.88629 -0.0529,0.36288 -0.0594,0.47006 -0.0594,0.96209 0,0.49202 0.006,0.59921 0.0594,0.96209 0.35906,2.48078 2.12466,4.56511 4.51927,5.33736 0.42882,0.13818 0.88087,0.23246 1.39492,0.28928 0.2002,0.022 1.06557,0.022 1.26575,0 0.88735,-0.0982 1.63904,-0.31769 2.38042,-0.69607 0.11366,-0.0581 0.13562,-0.0736 0.12011,-0.0865 -0.0103,-0.008 -0.49468,-0.65732 -1.07589,-1.4425 l -1.05652,-1.42699 -1.32388,-1.95906 c -0.72846,-1.07703 -1.32776,-1.95776 -1.33292,-1.95776 -0.005,-10e-4 -0.0103,0.86911 -0.0129,1.93193 -0.004,1.86091 -0.005,1.93582 -0.0284,1.97972 -0.0336,0.0633 -0.0594,0.0891 -0.11366,0.11752 -0.0413,0.0207 -0.0775,0.0246 -0.27253,0.0246 h -0.22345 l -0.0594,-0.0374 c -0.0387,-0.0246 -0.0671,-0.0568 -0.0865,-0.0943 l -0.0272,-0.0581 0.003,-2.58927 0.004,-2.59055 0.04,-0.0503 c 0.0207,-0.0272 0.0646,-0.062 0.0956,-0.0788 0.0529,-0.0259 0.0736,-0.0284 0.29706,-0.0284 0.26349,0 0.30741,0.0103 0.37587,0.0852 0.0194,0.0207 0.7362,1.10027 1.59381,2.40072 0.85762,1.30043 2.03038,3.07611 2.60644,3.94781 l 1.04618,1.58454 0.0529,-0.0349 c 0.46885,-0.30476 0.96482,-0.73868 1.35747,-1.19067 0.83566,-0.95951 1.37426,-2.12952 1.55508,-3.37701 0.0529,-0.36288 0.0594,-0.47007 0.0594,-0.96209 0,-0.49203 -0.006,-0.59921 -0.0594,-0.96209 -0.35906,-2.4808 -2.12466,-4.56511 -4.51928,-5.33737 -0.42236,-0.13689 -0.87182,-0.23116 -1.37555,-0.28798 -0.12398,-0.0129 -0.97773,-0.0272 -1.08494,-0.0168 z m 2.70459,3.99559 c 0.062,0.031 0.11237,0.0904 0.13045,0.15239 0.0104,0.0335 0.0129,0.75159 0.0104,2.36972 l -0.004,2.32194 -0.40945,-0.62762 -0.41073,-0.62761 v -1.68788 c 0,-1.09123 0.005,-1.70464 0.0129,-1.73434 0.0207,-0.0723 0.0659,-0.12915 0.12786,-0.16272 0.0529,-0.0272 0.0723,-0.0297 0.27512,-0.0297 0.19115,0 0.22473,0.003 0.26736,0.0259 z"
       fill="#000000"
       id="path1-6-9"
       style="fill:#808080;stroke-width:0.0516131" /></g></svg>
