<?xml version="1.0" encoding="UTF-8" standalone="no"?>
<!-- Created with Inkscape (http://www.inkscape.org/) -->

<svg
   width="132.29166mm"
   height="99.342308mm"
   viewBox="0 0 132.29166 99.342308"
   version="1.1"
   id="svg1"
   xml:space="preserve"
   xmlns:inkscape="http://www.inkscape.org/namespaces/inkscape"
   xmlns:sodipodi="http://sodipodi.sourceforge.net/DTD/sodipodi-0.dtd"
   xmlns="http://www.w3.org/2000/svg"
   xmlns:svg="http://www.w3.org/2000/svg"><sodipodi:namedview
     id="namedview1"
     pagecolor="#ffffff"
     bordercolor="#000000"
     borderopacity="0.25"
     inkscape:showpageshadow="2"
     inkscape:pageopacity="0.0"
     inkscape:pagecheckerboard="0"
     inkscape:deskcolor="#d1d1d1"
     inkscape:document-units="mm" /><defs
     id="defs1" /><g
     inkscape:label="Layer 1"
     inkscape:groupmode="layer"
     id="layer1"
     transform="translate(-470.82139,-92.383748)"><path
       style="fill:#ffffff;stroke-width:0.550131"
       d="m 477.63218,191.42688 c -3.34028,-0.89958 -5.95482,-3.62777 -6.63901,-6.92763 -0.14998,-0.72336 -0.19661,-12.71338 -0.15982,-41.09759 l 0.0519,-40.07627 0.54798,-1.55259 c 0.82003,-2.323358 1.57762,-3.511988 3.41616,-5.359768 1.40564,-1.4127 1.95027,-1.81016 3.50771,-2.55979 3.88738,-1.87109 7.84798,-1.95661 11.54739,-0.24933 0.98734,0.45566 7.60234,5.30922 24.21115,17.764208 l 22.85262,17.13726 22.3666,-16.79172 c 12.30163,-9.23545 22.80543,-17.048578 23.34179,-17.362518 1.60187,-0.93761 3.3859,-1.56107 5.18665,-1.81257 5.48742,-0.7664 11.27561,2.30211 13.71002,7.26813 1.60468,3.273418 1.45694,-0.92207 1.5248,43.303848 0.0417,27.23142 -0.003,39.81651 -0.14667,40.75552 -0.51379,3.37028 -2.8531,6.15646 -6.10976,7.27692 -1.081,0.37192 -1.62784,0.389 -12.45358,0.389 h -11.32294 v -25.52923 -25.52923 l -17.96677,13.51168 c -10.18843,7.66208 -18.08011,13.46819 -18.22856,13.41122 -0.144,-0.0553 -8.30294,-6.13205 -18.13098,-13.50399 L 500.86968,140.4889 v 25.61859 25.61857 l -11.11073,-0.0128 c -8.9199,-0.0102 -11.31108,-0.0667 -12.1268,-0.28641 z"
       id="path2" /></g></svg>
