<?xml version="1.0" encoding="UTF-8" standalone="no"?>
<!-- Created with Inkscape (http://www.inkscape.org/) -->

<svg
   width="132.29166mm"
   height="131.67574mm"
   viewBox="0 0 132.29166 131.67574"
   version="1.1"
   id="svg1"
   xml:space="preserve"
   xmlns:inkscape="http://www.inkscape.org/namespaces/inkscape"
   xmlns:sodipodi="http://sodipodi.sourceforge.net/DTD/sodipodi-0.dtd"
   xmlns="http://www.w3.org/2000/svg"
   xmlns:svg="http://www.w3.org/2000/svg"><sodipodi:namedview
     id="namedview1"
     pagecolor="#ffffff"
     bordercolor="#000000"
     borderopacity="0.25"
     inkscape:showpageshadow="2"
     inkscape:pageopacity="0.0"
     inkscape:pagecheckerboard="0"
     inkscape:deskcolor="#d1d1d1"
     inkscape:document-units="mm" /><defs
     id="defs1" /><g
     inkscape:label="Layer 1"
     inkscape:groupmode="layer"
     id="layer1"
     transform="translate(-234.60064,-58.25041)"><path
       style="fill:#ffffff;stroke-width:1.11212"
       d="m 236.83493,145.93615 v -43.99 h 13.68251 13.6825 v 43.99 43.98999 h -13.6825 -13.68251 z m 44.43136,0 v -43.99 h 13.24114 13.24113 v 5.88496 c 0,3.23671 0.0993,5.88378 0.22069,5.88237 0.12138,-0.001 0.72671,-0.78801 1.34517,-1.74798 1.64775,-2.55759 3.18577,-4.19595 5.75985,-6.13557 5.95592,-4.48792 13.46237,-6.602657 21.65767,-6.101438 17.22003,1.053168 26.04107,9.028218 28.978,26.198828 1.00778,5.89194 1.18236,11.52178 1.18236,38.12845 v 25.87037 H 353.22845 339.5646 l -0.11546,-25.96733 c -0.11262,-25.32775 -0.13107,-26.0349 -0.74937,-28.71034 -1.85988,-8.04804 -6.12631,-11.51349 -14.1791,-11.51707 -4.13175,-0.002 -8.5444,1.74833 -10.89637,4.32175 -2.86355,3.13319 -4.21872,7.2255 -4.69091,14.16561 -0.16114,2.36824 -0.29502,14.07122 -0.29753,26.00663 l -0.004,21.70075 H 294.94891 281.2664 Z M 246.47457,89.286331 c -1.87108,-0.470336 -5.02418,-2.222698 -6.68717,-3.716448 -1.96945,-1.76901 -3.59136,-4.239132 -4.47367,-6.813237 -0.95079,-2.773885 -0.95079,-7.04836 0,-9.822245 1.45276,-4.238387 4.34755,-7.434887 8.58314,-9.477712 l 2.5011,-1.206279 h 3.99998 3.99999 l 2.80064,1.390312 c 2.22502,1.104554 3.16939,1.784491 4.59466,3.308113 5.88155,6.287405 5.88155,15.505972 0,21.793377 -1.42014,1.518128 -2.37113,2.204293 -4.56334,3.292566 l -2.76935,1.374776 -3.44279,0.07674 c -1.89354,0.04215 -3.93797,-0.04782 -4.54319,-0.199914 z"
       id="path1" /></g></svg>
