<?xml version="1.0" encoding="UTF-8" standalone="no"?>
<!-- Created with Inkscape (http://www.inkscape.org/) -->

<svg
   width="6.3499918mm"
   height="6.7093453mm"
   viewBox="0 0 6.3499918 6.7093453"
   version="1.1"
   id="svg1"
   xml:space="preserve"
   xmlns="http://www.w3.org/2000/svg"
   xmlns:svg="http://www.w3.org/2000/svg"><defs
     id="defs1" /><g
     id="layer1"
     transform="translate(-99.064043,-142.41458)"><path
       d="m 101.77407,142.41458 c -0.13841,0 -0.25987,0.0965 -0.28715,0.23246 l -0.0638,0.32362 c -0.4523,0.13126 -0.86493,0.36857 -1.20331,0.69281 l -0.309941,-0.10484 c -0.131416,-0.044 -0.277126,0.0123 -0.346406,0.13219 l -0.460356,0.8022 c -0.06914,0.12018 -0.04474,0.27348 0.05925,0.36464 l 0.246131,0.21878 c -0.05703,0.23162 -0.0866,0.46309 -0.0866,0.69281 0,0.22929 0.02943,0.4609 0.0866,0.69282 l -0.246131,0.21878 c -0.103995,0.0913 -0.128389,0.24445 -0.05925,0.36464 l 0.460356,0.8022 c 0.06914,0.12004 0.214847,0.17696 0.346406,0.13218 l 0.309941,-0.10483 c 0.33868,0.32453 0.7513,0.56154 1.20331,0.69281 l 0.0638,0.32362 c 0.0276,0.1355 0.14888,0.23246 0.28715,0.23246 h 0.92983 c 0.13856,0 0.25988,-0.0965 0.28715,-0.23246 l 0.0638,-0.32362 c 0.45215,-0.13112 0.86477,-0.36828 1.2033,-0.69281 l 0.30994,0.10483 c 0.13157,0.0446 0.27257,-0.0123 0.34185,-0.13218 l 0.46492,-0.8022 c 0.0693,-0.12004 0.0449,-0.27334 -0.0593,-0.36464 l -0.24613,-0.21878 c 0.0572,-0.23162 0.0866,-0.46324 0.0866,-0.69282 0,-0.22972 -0.0294,-0.46119 -0.0866,-0.69281 l 0.24613,-0.21878 c 0.104,-0.0915 0.12853,-0.2446 0.0593,-0.36464 l -0.46036,-0.8022 c -0.0694,-0.12033 -0.21558,-0.17667 -0.34641,-0.13219 l -0.30994,0.10484 c -0.33853,-0.32439 -0.75115,-0.56155 -1.2033,-0.69281 l -0.0638,-0.32362 c -0.0276,-0.13594 -0.14874,-0.23246 -0.28715,-0.23246 z m -0.77485,2.33369 c 0.064,0 0.12248,0.0436 0.14129,0.10483 l 0.51049,1.6591 c 0.004,0.0138 0.004,0.031 0.004,0.0456 v 0.0866 c 0,0.0807 -0.0653,0.14585 -0.14585,0.14585 -0.0805,0 -0.14585,-0.0652 -0.14585,-0.14585 v -0.0684 l -0.0684,-0.22335 h -0.59253 l -0.0684,0.22335 v 0.0684 c 0,0.0807 -0.0653,0.14585 -0.14585,0.14585 -0.0805,0 -0.14586,-0.0652 -0.14586,-0.14585 v -0.0866 c 0,-0.0146 3.3e-4,-0.0316 0.004,-0.0456 l 0.51049,-1.6591 c 0.0188,-0.0613 0.0773,-0.10483 0.1413,-0.10483 z m 1.09391,0 h 0.58342 c 0.24125,0 0.43757,0.19632 0.43757,0.43756 v 0.43757 c 0,0.24124 -0.19632,0.43757 -0.43757,0.43757 h -0.43756 v 0.58342 c 0,0.0807 -0.0653,0.14585 -0.14586,0.14585 -0.0805,0 -0.14585,-0.0652 -0.14585,-0.14585 v -1.75027 c 0,-0.0805 0.0653,-0.14585 0.14585,-0.14585 z m 1.45856,0 h 0.2917 c 0.0807,0 0.14586,0.0653 0.14586,0.14585 0,0.0805 -0.0652,0.14586 -0.14586,0.14586 v 1.45855 c 0.0807,0 0.14586,0.0652 0.14586,0.14586 0,0.0807 -0.0652,0.14585 -0.14586,0.14585 h -0.2917 c -0.0807,0 -0.14586,-0.0652 -0.14586,-0.14585 0,-0.0807 0.0652,-0.14586 0.14586,-0.14586 v -1.45855 c -0.0807,0 -0.14586,-0.0654 -0.14586,-0.14586 0,-0.0805 0.0652,-0.14585 0.14586,-0.14585 z m -1.3127,0.29171 v 0.72927 h 0.43756 c 0.0805,0 0.14586,-0.0655 0.14586,-0.14585 v -0.43757 c 0,-0.0804 -0.0653,-0.14585 -0.14586,-0.14585 z m -1.23977,0.35096 -0.20511,0.67003 h 0.41022 z"
       id="path1-2"
       style="fill:#999999;stroke-width:0.145855" /></g></svg>
