<?xml version="1.0" encoding="UTF-8" standalone="no"?>
<!-- Created with Inkscape (http://www.inkscape.org/) -->

<svg
   width="1339.0081mm"
   height="349.7146mm"
   viewBox="0 0 1339.0081 349.7146"
   version="1.1"
   id="svg1"
   xml:space="preserve"
   xmlns="http://www.w3.org/2000/svg"
   xmlns:svg="http://www.w3.org/2000/svg"><defs
     id="defs1" /><g
     id="layer1"
     transform="translate(1528.8149,-300.21529)"><g
       id="g1"><rect
         style="fill:#ececec;fill-opacity:1;stroke:none;stroke-width:13.1569;stroke-opacity:0.996078"
         id="rect1"
         width="1332.5522"
         height="349.7146"
         x="-1522.359"
         y="300.2153"
         ry="174.8573" /><g
         id="layer1-5"
         transform="translate(-2590.6661,-584.39592)"><path
           style="fill:#ececec;stroke:none;stroke-width:0.905822;stroke-opacity:0.996078"
           id="path1-4"
           d="m 1404.9557,1059.4685 a 168.2601,168.2601 0 0 1 -168.2566,168.2601 168.2601,168.2601 0 0 1 -168.2636,-168.2531 168.2601,168.2601 0 0 1 168.2495,-168.2671 168.2601,168.2601 0 0 1 168.2707,168.2461 l -168.2601,0.014 z" /><g
           id="g22"
           transform="translate(-7.3900024,637.80866)"><path
             style="fill:#d0d0d0;fill-opacity:1"
             d="m 1237.6565,596.36521 c 0.3291,-0.0633 0.8053,-0.0609 1.0583,0.005 0.253,0.0662 -0.016,0.118 -0.5984,0.11506 -0.5821,-0.003 -0.7891,-0.0571 -0.4599,-0.1204 z m 11.9062,0 c 0.3291,-0.0633 0.8054,-0.0609 1.0583,0.005 0.253,0.0662 -0.016,0.118 -0.5984,0.11506 -0.582,-0.003 -0.789,-0.0571 -0.4599,-0.1204 z m -16.9199,-0.2582 c 0.191,-0.0764 0.4192,-0.067 0.5071,0.0209 0.088,0.0879 -0.068,0.15045 -0.3472,0.13897 -0.3082,-0.0127 -0.3709,-0.0754 -0.1599,-0.15986 z m 22.4896,0 c 0.191,-0.0764 0.4192,-0.067 0.5071,0.0209 0.088,0.0879 -0.068,0.15045 -0.3472,0.13897 -0.3083,-0.0127 -0.371,-0.0754 -0.1599,-0.15986 z m -25.9292,-0.26458 c 0.191,-0.0764 0.4192,-0.067 0.5072,0.0209 0.088,0.0879 -0.068,0.15045 -0.3473,0.13896 -0.3082,-0.0127 -0.3709,-0.0754 -0.1599,-0.15985 z m 29.6334,0 c 0.191,-0.0764 0.4192,-0.067 0.5071,0.0209 0.088,0.0879 -0.068,0.15045 -0.3473,0.13896 -0.3082,-0.0127 -0.3709,-0.0754 -0.1598,-0.15985 z m -133.987,-46.18749 -0.504,-0.59531 0.5953,0.50403 c 0.3274,0.27721 0.5953,0.5451 0.5953,0.59531 0,0.21173 -0.213,0.0554 -0.6866,-0.50403 z m 237.7533,0.49542 c 0,-0.0549 0.2083,-0.2633 0.463,-0.46302 0.4196,-0.32911 0.429,-0.31975 0.1,0.0999 -0.3457,0.44073 -0.5629,0.58089 -0.5629,0.36313 z m -246.7491,-9.49125 -0.5041,-0.59532 0.5953,0.50403 c 0.3275,0.27722 0.5953,0.54511 0.5953,0.59532 0,0.21173 -0.2129,0.0554 -0.6865,-0.50403 z m 256.0095,0.23083 c 0,-0.0549 0.2083,-0.2633 0.463,-0.46302 0.4196,-0.32911 0.429,-0.31975 0.1,0.0999 -0.3457,0.44072 -0.5629,0.58088 -0.5629,0.36312 z m -176.4771,-38.36458 c 0,-0.0549 0.2083,-0.2633 0.463,-0.46302 0.4196,-0.32911 0.429,-0.31975 0.1,0.0999 -0.3456,0.44073 -0.5629,0.58089 -0.5629,0.36313 z m -8.9958,-3.70417 c 0,-0.0549 0.2083,-0.2633 0.463,-0.46302 0.4196,-0.32911 0.429,-0.31975 0.1,0.0999 -0.3457,0.44073 -0.5629,0.58089 -0.5629,0.36313 z m 114.6717,-0.76 -0.504,-0.59531 0.5953,0.50402 c 0.5594,0.47367 0.7157,0.6866 0.504,0.6866 -0.05,0 -0.3181,-0.26789 -0.5953,-0.59531 z m -110.5707,-3.63802 c 1.3036,-1.30969 2.4297,-2.38125 2.5025,-2.38125 0.073,0 -0.9343,1.07156 -2.2379,2.38125 -1.3036,1.30969 -2.4298,2.38125 -2.5025,2.38125 -0.073,0 0.9343,-1.07156 2.2379,-2.38125 z m 107.2885,0.13229 c -0.6426,-0.65484 -1.1089,-1.19062 -1.0362,-1.19062 0.073,0 0.6581,0.53578 1.3008,1.19062 0.6427,0.65484 1.109,1.19063 1.0362,1.19063 -0.073,0 -0.6581,-0.53579 -1.3008,-1.19063 z m -3.597,-3.37344 -0.504,-0.59531 0.5953,0.50403 c 0.5595,0.47366 0.7158,0.6866 0.504,0.6866 -0.05,0 -0.3181,-0.2679 -0.5953,-0.59532 z m -99.4412,-0.80516 c 0.099,-0.26094 0.2473,-0.40778 0.3288,-0.32632 0.082,0.0815 2e-4,0.29496 -0.1807,0.47443 -0.2613,0.25937 -0.2916,0.22898 -0.1481,-0.14811 z m 43.4574,-7.7761 c 0.191,-0.0764 0.4192,-0.067 0.5071,0.0209 0.088,0.0879 -0.068,0.15045 -0.3473,0.13896 -0.3082,-0.0127 -0.3709,-0.0754 -0.1598,-0.15985 z m 10.8479,0 c 0.191,-0.0764 0.4192,-0.067 0.5071,0.0209 0.088,0.0879 -0.068,0.15045 -0.3473,0.13896 -0.3082,-0.0127 -0.3709,-0.0754 -0.1598,-0.15985 z m -154.2025,-6.26915 c 0,-0.055 0.2084,-0.2633 0.463,-0.46302 0.4197,-0.32911 0.429,-0.31975 0.1,0.0999 -0.3456,0.44073 -0.5629,0.58089 -0.5629,0.36313 z m 207.4334,0 c 0,-0.055 0.2083,-0.2633 0.463,-0.46302 0.4196,-0.32911 0.429,-0.31975 0.1,0.0999 -0.3457,0.44073 -0.5629,0.58089 -0.5629,0.36313 z m -117.2442,-0.8923 c -0.3291,-0.41964 -0.3198,-0.429 0.1,-0.0999 0.2546,0.19972 0.463,0.40808 0.463,0.46302 0,0.21776 -0.2173,0.0776 -0.5629,-0.36313 z m 207.4333,0 c -0.3291,-0.41964 -0.3197,-0.429 0.1,-0.0999 0.2547,0.19972 0.463,0.40808 0.463,0.46302 0,0.21776 -0.2172,0.0776 -0.5629,-0.36313 z m -293.786,-3.24114 c 1.3036,-1.30969 2.4297,-2.38125 2.5025,-2.38125 0.073,0 -0.9343,1.07156 -2.2379,2.38125 -1.3037,1.30969 -2.4298,2.38125 -2.5026,2.38125 -0.073,0 0.9344,-1.07156 2.238,-2.38125 z m 207.301,0.13229 c 1.2305,-1.23693 2.2968,-2.24896 2.3696,-2.24896 0.073,0 -0.8745,1.01203 -2.105,2.24896 -1.2305,1.23693 -2.2968,2.24896 -2.3696,2.24896 -0.073,0 0.8745,-1.01203 2.105,-2.24896 z m -123.7093,0.0661 -0.7771,-0.8599 0.8599,0.77711 c 0.4729,0.4274 0.8599,0.81436 0.8599,0.85989 0,0.20441 -0.2184,0.0244 -0.9427,-0.7771 z m 58.9576,0.67654 c 0.2574,-0.0671 0.6146,-0.0627 0.7937,0.01 0.1792,0.0725 -0.031,0.12736 -0.468,0.12197 -0.4366,-0.005 -0.5831,-0.0647 -0.3257,-0.13177 z m 5.0271,0 c 0.2574,-0.0671 0.6146,-0.0627 0.7937,0.01 0.1791,0.0725 -0.031,0.12736 -0.468,0.12197 -0.4366,-0.005 -0.5832,-0.0647 -0.3257,-0.13177 z m 143.4486,-0.67654 -0.7771,-0.8599 0.8599,0.77711 c 0.8015,0.72437 0.9815,0.94268 0.7771,0.94268 -0.045,0 -0.4325,-0.38695 -0.8599,-0.85989 z m -210.4931,-2.77813 c -0.3292,-0.41964 -0.3198,-0.429 0.1,-0.0999 0.2547,0.19971 0.4631,0.40807 0.4631,0.46302 0,0.21776 -0.2173,0.0776 -0.5629,-0.36313 z m 207.4333,0 c -0.3291,-0.41964 -0.3198,-0.429 0.1,-0.0999 0.2546,0.19971 0.463,0.40807 0.463,0.46302 0,0.21776 -0.2173,0.0776 -0.5629,-0.36313 z m -177.9237,-10.18646 -0.504,-0.59531 0.5953,0.50403 c 0.5594,0.47366 0.7158,0.68659 0.504,0.68659 -0.05,0 -0.3181,-0.26789 -0.5953,-0.59531 z m 70.272,0.23084 c 0,-0.055 0.2084,-0.26331 0.463,-0.46302 0.4197,-0.32911 0.429,-0.31975 0.1,0.0999 -0.3456,0.44073 -0.5629,0.58089 -0.5629,0.36313 z m -127.0496,-2.72668 c 0.191,-0.0764 0.4192,-0.067 0.5071,0.0209 0.088,0.0879 -0.068,0.15045 -0.3472,0.13896 -0.3083,-0.0127 -0.371,-0.0754 -0.1599,-0.15985 z m 207.4333,0 c 0.191,-0.0764 0.4192,-0.067 0.5072,0.0209 0.088,0.0879 -0.068,0.15045 -0.3473,0.13896 -0.3082,-0.0127 -0.3709,-0.0754 -0.1599,-0.15985 z m -229.6583,-0.26459 c 0.191,-0.0764 0.4192,-0.067 0.5071,0.0209 0.088,0.0879 -0.068,0.15045 -0.3472,0.13897 -0.3083,-0.0127 -0.371,-0.0754 -0.1599,-0.15986 z m 75.9513,-0.28228 c -0.3291,-0.41964 -0.3198,-0.429 0.1,-0.0999 0.2546,0.19972 0.463,0.40808 0.463,0.46302 0,0.21776 -0.2173,0.0776 -0.5629,-0.36313 z m 76.6306,-0.0661 c 0.2634,-0.29104 0.5384,-0.52917 0.6112,-0.52917 0.073,0 -0.083,0.23813 -0.3466,0.52917 -0.2634,0.29104 -0.5384,0.52916 -0.6112,0.52916 -0.073,0 0.083,-0.23812 0.3466,-0.52916 z m 54.8514,0.34842 c 0.191,-0.0764 0.4192,-0.067 0.5072,0.0209 0.088,0.0879 -0.068,0.15045 -0.3473,0.13897 -0.3082,-0.0127 -0.3709,-0.0754 -0.1599,-0.15986 z M 1131.8366,456.407 c 0.191,-0.0764 0.4192,-0.067 0.5071,0.0209 0.088,0.0879 -0.068,0.15045 -0.3473,0.13896 -0.3082,-0.0127 -0.3709,-0.0754 -0.1598,-0.15985 z m 16.123,0.006 c 0.1819,-0.0734 0.4796,-0.0734 0.6615,0 0.1819,0.0734 0.033,0.13345 -0.3307,0.13345 -0.3639,0 -0.5127,-0.06 -0.3308,-0.13345 z m 191.3103,-0.006 c 0.191,-0.0764 0.4192,-0.067 0.5071,0.0209 0.088,0.0879 -0.068,0.15045 -0.3472,0.13896 -0.3083,-0.0127 -0.371,-0.0754 -0.1599,-0.15985 z m 16.1231,0.006 c 0.1819,-0.0734 0.4795,-0.0734 0.6614,0 0.1819,0.0734 0.033,0.13345 -0.3307,0.13345 -0.3638,0 -0.5126,-0.06 -0.3307,-0.13345 z m -221.0594,-0.27174 c 0.2546,-0.0666 0.6714,-0.0666 0.926,0 0.2547,0.0666 0.046,0.121 -0.463,0.121 -0.5093,0 -0.7177,-0.0544 -0.463,-0.121 z m 10.5833,0 c 0.2547,-0.0666 0.6714,-0.0666 0.9261,0 0.2546,0.0666 0.046,0.121 -0.4631,0.121 -0.5093,0 -0.7176,-0.0544 -0.463,-0.121 z m 196.85,0 c 0.2547,-0.0666 0.6714,-0.0666 0.9261,0 0.2546,0.0666 0.046,0.121 -0.4631,0.121 -0.5093,0 -0.7176,-0.0544 -0.463,-0.121 z m 10.5834,0 c 0.2546,-0.0666 0.6713,-0.0666 0.926,0 0.2547,0.0666 0.046,0.121 -0.463,0.121 -0.5094,0 -0.7177,-0.0544 -0.463,-0.121 z m -215.6304,-8.73222 c 0.2574,-0.0671 0.6146,-0.0627 0.7937,0.01 0.1791,0.0725 -0.032,0.12736 -0.468,0.12197 -0.4366,-0.005 -0.5832,-0.0647 -0.3257,-0.13178 z m 6.6145,0 c 0.2575,-0.0671 0.6147,-0.0627 0.7938,0.01 0.1791,0.0725 -0.032,0.12736 -0.4681,0.12197 -0.4365,-0.005 -0.5831,-0.0647 -0.3257,-0.13178 z m 200.8188,0 c 0.2574,-0.0671 0.6146,-0.0627 0.7938,0.01 0.1791,0.0725 -0.031,0.12736 -0.4681,0.12197 -0.4366,-0.005 -0.5831,-0.0647 -0.3257,-0.13178 z m 6.6146,0 c 0.2574,-0.0671 0.6146,-0.0627 0.7937,0.01 0.1792,0.0725 -0.032,0.12736 -0.468,0.12197 -0.4366,-0.005 -0.5831,-0.0647 -0.3257,-0.13178 z m -216.55,-0.26197 c 0.191,-0.0764 0.4192,-0.067 0.5071,0.0209 0.088,0.0879 -0.068,0.15045 -0.3472,0.13897 -0.3082,-0.0127 -0.3709,-0.0754 -0.1599,-0.15986 z m 11.9063,0 c 0.191,-0.0764 0.4192,-0.067 0.5071,0.0209 0.088,0.0879 -0.068,0.15045 -0.3473,0.13897 -0.3082,-0.0127 -0.3709,-0.0754 -0.1598,-0.15986 z m 195.5271,0 c 0.191,-0.0764 0.4192,-0.067 0.5071,0.0209 0.088,0.0879 -0.068,0.15045 -0.3473,0.13897 -0.3082,-0.0127 -0.3709,-0.0754 -0.1598,-0.15986 z m 11.9062,0 c 0.191,-0.0764 0.4192,-0.067 0.5071,0.0209 0.088,0.0879 -0.068,0.15045 -0.3472,0.13897 -0.3083,-0.0127 -0.371,-0.0754 -0.1599,-0.15986 z m -205.5812,-0.26458 c 0.191,-0.0764 0.4192,-0.067 0.5071,0.0209 0.088,0.0879 -0.068,0.15045 -0.3473,0.13896 -0.3082,-0.0127 -0.3709,-0.0754 -0.1598,-0.15985 z m 207.4333,0 c 0.191,-0.0764 0.4192,-0.067 0.5071,0.0209 0.088,0.0879 -0.068,0.15045 -0.3473,0.13896 -0.3082,-0.0127 -0.3709,-0.0754 -0.1598,-0.15985 z m -271.9212,-5.79443 c 0.013,-0.30823 0.075,-0.37092 0.1599,-0.15986 0.076,0.191 0.067,0.4192 -0.021,0.50712 -0.088,0.0879 -0.1505,-0.0684 -0.139,-0.34726 z m 320.9396,0 c 0.013,-0.30823 0.075,-0.37092 0.1599,-0.15986 0.076,0.191 0.067,0.4192 -0.021,0.50712 -0.088,0.0879 -0.1505,-0.0684 -0.139,-0.34726 z m -321.2042,-2.38125 c 0.013,-0.30823 0.075,-0.37092 0.1599,-0.15986 0.076,0.191 0.067,0.4192 -0.021,0.50712 -0.088,0.0879 -0.1505,-0.0684 -0.139,-0.34726 z m 321.4688,0 c 0.013,-0.30823 0.075,-0.37092 0.1598,-0.15986 0.076,0.191 0.067,0.4192 -0.021,0.50712 -0.088,0.0879 -0.1505,-0.0684 -0.139,-0.34726 z m -321.7333,-2.64584 c 0.013,-0.30822 0.075,-0.37092 0.1598,-0.15985 0.076,0.191 0.067,0.4192 -0.021,0.50712 -0.088,0.0879 -0.1504,-0.0684 -0.1389,-0.34727 z m 87.5562,0.33614 c 0,-0.0455 0.3869,-0.43249 0.8598,-0.8599 l 0.8599,-0.7771 -0.7771,0.85989 c -0.7243,0.80154 -0.9426,0.98151 -0.9426,0.77711 z m 207.4333,0 c 0,-0.0455 0.3869,-0.43249 0.8599,-0.8599 l 0.8599,-0.7771 -0.7771,0.85989 c -0.7244,0.80154 -0.9427,0.98151 -0.9427,0.77711 z m 27.0293,-0.44638 c 0,-0.3638 0.06,-0.51263 0.1334,-0.33073 0.073,0.1819 0.073,0.47956 0,0.66146 -0.073,0.1819 -0.1334,0.0331 -0.1334,-0.33073 z m -295.7388,-0.33073 -0.5041,-0.59531 0.5954,0.50403 c 0.5594,0.47366 0.7157,0.68659 0.504,0.68659 -0.05,0 -0.3181,-0.26789 -0.5953,-0.59531 z m 207.3061,-0.13229 -0.6414,-0.7276 0.7276,0.64143 c 0.4002,0.35279 0.7276,0.68021 0.7276,0.7276 0,0.20751 -0.2143,0.0386 -0.8138,-0.64143 z m -247.059,-2.4474 c 0,-0.3638 0.06,-0.51263 0.1334,-0.33073 0.073,0.18191 0.073,0.47956 0,0.66146 -0.073,0.1819 -0.1334,0.0331 -0.1334,-0.33073 z m 13.239,-0.39687 c 0.01,-0.43656 0.065,-0.58313 0.1317,-0.32569 0.067,0.25743 0.063,0.61461 -0.01,0.79375 -0.072,0.17913 -0.1273,-0.0315 -0.1219,-0.46806 z m 230.7807,-0.19844 -0.7771,-0.85989 0.8599,0.7771 c 0.8015,0.72437 0.9815,0.94269 0.7771,0.94269 -0.045,0 -0.4325,-0.38696 -0.8599,-0.8599 z m 91.7464,0.19844 c 0.01,-0.43656 0.065,-0.58313 0.1317,-0.32569 0.067,0.25743 0.063,0.61461 -0.01,0.79375 -0.072,0.17913 -0.1273,-0.0315 -0.1219,-0.46806 z m 13.1984,0.24253 c 0.013,-0.30822 0.075,-0.37092 0.1599,-0.15985 0.076,0.191 0.067,0.4192 -0.021,0.50712 -0.088,0.0879 -0.1505,-0.0684 -0.139,-0.34727 z m -312.5138,-0.57326 -0.6414,-0.7276 0.7276,0.64143 c 0.68,0.59951 0.8489,0.81377 0.6414,0.81377 -0.047,0 -0.3748,-0.32742 -0.7276,-0.7276 z m 68.5471,0.0661 c 0.3418,-0.36381 0.6809,-0.66146 0.7537,-0.66146 0.073,0 -0.1473,0.29765 -0.4891,0.66146 -0.3418,0.3638 -0.681,0.66145 -0.7537,0.66145 -0.073,0 0.1473,-0.29765 0.4891,-0.66145 z m 207.4333,0 c 0.3418,-0.36381 0.681,-0.66146 0.7537,-0.66146 0.073,0 -0.1473,0.29765 -0.4891,0.66146 -0.3418,0.3638 -0.6809,0.66145 -0.7537,0.66145 -0.073,0 0.1474,-0.29765 0.4891,-0.66145 z m -312.6761,-4.63021 c 0,-0.50933 0.055,-0.71769 0.121,-0.46302 0.067,0.25466 0.067,0.67138 0,0.92604 -0.066,0.25466 -0.121,0.0463 -0.121,-0.46302 z m 13.2345,-0.13229 c 0,-0.58209 0.057,-0.78906 0.1204,-0.45994 0.063,0.32912 0.061,0.80537 -0.01,1.05833 -0.066,0.25297 -0.118,-0.0163 -0.1151,-0.59839 z m 323.0616,-0.1323 c 0,-0.65484 0.052,-0.92273 0.1147,-0.59531 0.063,0.32742 0.063,0.8632 0,1.19063 -0.063,0.32742 -0.1147,0.0595 -0.1147,-0.59532 z m 13.2185,0 c 0,-0.50932 0.054,-0.71768 0.121,-0.46302 0.067,0.25466 0.067,0.67138 0,0.92604 -0.066,0.25467 -0.121,0.0463 -0.121,-0.46302 z m -226.7675,-3.70416 c 0,-0.36381 0.06,-0.51263 0.1334,-0.33073 0.073,0.1819 0.073,0.47956 0,0.66146 -0.073,0.1819 -0.1334,0.0331 -0.1334,-0.33073 z m 103.991,-0.13229 c 0.01,-0.43657 0.065,-0.58313 0.1318,-0.3257 0.067,0.25743 0.063,0.61462 -0.01,0.79375 -0.072,0.17913 -0.1274,-0.0315 -0.122,-0.46805 z m 0,-5.02709 c 0.01,-0.43656 0.065,-0.58312 0.1318,-0.32569 0.067,0.25743 0.063,0.61462 -0.01,0.79375 -0.072,0.17913 -0.1274,-0.0315 -0.122,-0.46806 z m -103.991,-0.13229 c 0,-0.3638 0.06,-0.51263 0.1334,-0.33073 0.073,0.1819 0.073,0.47956 0,0.66146 -0.073,0.1819 -0.1334,0.0331 -0.1334,-0.33073 z m 213.549,-2.64583 c 0,-0.65485 0.052,-0.92274 0.1147,-0.59532 0.063,0.32743 0.063,0.86321 0,1.19063 -0.063,0.32742 -0.1147,0.0595 -0.1147,-0.59531 z m -323.0616,-0.13229 c 0,-0.58209 0.057,-0.78906 0.1204,-0.45994 0.063,0.32912 0.061,0.80537 -0.01,1.05833 -0.066,0.25297 -0.118,-0.0163 -0.1151,-0.59839 z m 222.4995,0.26458 c 0.01,-0.43656 0.065,-0.58313 0.1317,-0.3257 0.067,0.25744 0.063,0.61462 -0.01,0.79375 -0.072,0.17914 -0.1273,-0.0315 -0.1219,-0.46805 z m 113.7806,-0.13229 c 0,-0.50933 0.054,-0.71769 0.121,-0.46302 0.067,0.25466 0.067,0.67138 0,0.92604 -0.066,0.25466 -0.121,0.0463 -0.121,-0.46302 z m -349.5146,-0.26459 c 0,-0.50932 0.055,-0.71768 0.121,-0.46302 0.067,0.25466 0.067,0.67138 0,0.92604 -0.066,0.25467 -0.121,0.0463 -0.121,-0.46302 z m 113.761,0.1323 c 0.01,-0.43657 0.065,-0.58313 0.1318,-0.3257 0.067,0.25743 0.063,0.61462 -0.01,0.79375 -0.072,0.17913 -0.1273,-0.0315 -0.122,-0.46805 z m 0.2339,-2.4033 c 0.013,-0.30823 0.075,-0.37092 0.1599,-0.15986 0.076,0.191 0.067,0.4192 -0.021,0.50712 -0.088,0.0879 -0.1504,-0.0684 -0.139,-0.34726 z m 121.4438,0 c 0.013,-0.30823 0.075,-0.37092 0.1598,-0.15986 0.077,0.191 0.067,0.4192 -0.021,0.50712 -0.088,0.0879 -0.1505,-0.0684 -0.139,-0.34726 z m -0.2646,-1.85209 c 0.013,-0.30822 0.075,-0.37092 0.1599,-0.15985 0.076,0.191 0.067,0.4192 -0.021,0.50712 -0.088,0.0879 -0.1505,-0.0684 -0.139,-0.34727 z m 100.837,-0.7717 c 0.01,-0.43656 0.065,-0.58312 0.1317,-0.32569 0.067,0.25743 0.063,0.61462 -0.01,0.79375 -0.072,0.17913 -0.1273,-0.0315 -0.1219,-0.46806 z m -322.5369,-0.13229 c 0,-0.3638 0.06,-0.51263 0.1334,-0.33073 0.073,0.1819 0.073,0.47956 0,0.66146 -0.073,0.1819 -0.1334,0.0331 -0.1334,-0.33073 z m -13.2292,-0.26458 c 0,-0.36381 0.06,-0.51263 0.1334,-0.33073 0.073,0.1819 0.073,0.47955 0,0.66146 -0.073,0.1819 -0.1334,0.0331 -0.1334,-0.33073 z m 348.9645,0.11024 c 0.013,-0.30822 0.075,-0.37092 0.1599,-0.15985 0.076,0.19099 0.067,0.4192 -0.021,0.50712 -0.088,0.0879 -0.1505,-0.0684 -0.139,-0.34727 z m -335.4916,-3.175 c 0.013,-0.30822 0.075,-0.37092 0.1598,-0.15985 0.076,0.19099 0.067,0.4192 -0.021,0.50712 -0.088,0.0879 -0.1504,-0.0684 -0.1389,-0.34727 z m 321.9979,0 c 0.013,-0.30822 0.075,-0.37092 0.1598,-0.15985 0.077,0.19099 0.067,0.4192 -0.021,0.50712 -0.088,0.0879 -0.1504,-0.0684 -0.1389,-0.34727 z m -335.2271,-0.5296 c 0.013,-0.30822 0.075,-0.37092 0.1598,-0.15985 0.077,0.191 0.067,0.4192 -0.021,0.50712 -0.088,0.0879 -0.1505,-0.0684 -0.139,-0.34727 z m 24.6062,0 c 0.013,-0.30822 0.075,-0.37092 0.1599,-0.15985 0.076,0.191 0.067,0.4192 -0.021,0.50712 -0.088,0.0879 -0.1505,-0.0684 -0.139,-0.34727 z m 299.2438,0 c 0.013,-0.30822 0.075,-0.37092 0.1598,-0.15985 0.076,0.191 0.067,0.4192 -0.021,0.50712 -0.088,0.0879 -0.1505,-0.0684 -0.139,-0.34727 z m -310.3563,-2.11666 c 0.013,-0.30823 0.075,-0.37092 0.1599,-0.15986 0.076,0.191 0.067,0.4192 -0.021,0.50712 -0.088,0.0879 -0.1505,-0.0684 -0.139,-0.34726 z m 321.4688,0 c 0.013,-0.30823 0.075,-0.37092 0.1598,-0.15986 0.076,0.191 0.067,0.4192 -0.021,0.50712 -0.088,0.0879 -0.1505,-0.0684 -0.139,-0.34726 z m -310.5597,-1.56546 c 0,-0.87312 0.051,-1.19841 0.1097,-0.72286 0.059,0.47555 0.058,1.18992 0,1.5875 -0.06,0.39758 -0.1085,0.008 -0.107,-0.86464 z m 299.7909,-1.71979 c 0,-1.67349 0.043,-2.3581 0.095,-1.52135 0.053,0.83674 0.053,2.20596 0,3.04271 -0.053,0.83674 -0.095,0.15213 -0.095,-1.52136 z m -310.4354,0.904 c 0.013,-0.30823 0.075,-0.37092 0.1599,-0.15986 0.076,0.191 0.067,0.4192 -0.021,0.50712 -0.088,0.0879 -0.1505,-0.0684 -0.139,-0.34726 z m 320.9396,0 c 0.013,-0.30823 0.075,-0.37092 0.1599,-0.15986 0.076,0.191 0.067,0.4192 -0.021,0.50712 -0.088,0.0879 -0.1505,-0.0684 -0.139,-0.34726 z m -310.2951,-2.35921 c 0,-0.87312 0.051,-1.19841 0.1097,-0.72286 0.059,0.47555 0.058,1.18992 0,1.5875 -0.06,0.39758 -0.1085,0.008 -0.107,-0.86464 z m 92.3243,-0.52916 c 0,-0.58209 0.057,-0.78906 0.1204,-0.45994 0.063,0.32912 0.061,0.80537 -0.01,1.05834 -0.066,0.25296 -0.118,-0.0163 -0.115,-0.5984 z m 115.0937,0 c 0,-0.58209 0.057,-0.78906 0.1204,-0.45994 0.063,0.32912 0.061,0.80537 -0.01,1.05834 -0.066,0.25296 -0.118,-0.0163 -0.1151,-0.5984 z m -115.4041,-3.19705 c 0.013,-0.30823 0.075,-0.37092 0.1598,-0.15985 0.076,0.19099 0.067,0.4192 -0.021,0.50712 -0.088,0.0879 -0.1504,-0.0684 -0.1389,-0.34727 z m 207.4333,0 c 0.013,-0.30823 0.075,-0.37092 0.1598,-0.15985 0.076,0.19099 0.067,0.4192 -0.021,0.50712 -0.088,0.0879 -0.1505,-0.0684 -0.139,-0.34727 z m -299.2438,-0.26458 c 0.013,-0.30823 0.075,-0.37092 0.1599,-0.15986 0.076,0.191 0.067,0.4192 -0.021,0.50712 -0.088,0.0879 -0.1505,-0.0683 -0.139,-0.34726 z m 207.4334,0 c 0.013,-0.30823 0.075,-0.37092 0.1598,-0.15986 0.077,0.191 0.067,0.4192 -0.021,0.50712 -0.088,0.0879 -0.1504,-0.0683 -0.1389,-0.34726 z m -207.1688,-1.85209 c 0.013,-0.30822 0.075,-0.37092 0.1599,-0.15985 0.076,0.191 0.067,0.4192 -0.021,0.50712 -0.088,0.0879 -0.1505,-0.0683 -0.139,-0.34727 z m 207.4334,0 c 0.013,-0.30822 0.075,-0.37092 0.1598,-0.15985 0.076,0.191 0.067,0.4192 -0.021,0.50712 -0.088,0.0879 -0.1504,-0.0683 -0.1389,-0.34727 z m 91.2812,0 c 0.013,-0.30822 0.075,-0.37092 0.1599,-0.15985 0.076,0.191 0.067,0.4192 -0.021,0.50712 -0.088,0.0879 -0.1505,-0.0683 -0.139,-0.34727 z m -188.1396,-7.61847 c 0,-0.0549 0.2083,-0.2633 0.463,-0.46302 0.4196,-0.32911 0.429,-0.31975 0.1,0.0999 -0.3457,0.44072 -0.5629,0.58088 -0.5629,0.36312 z m 77.2246,-0.36312 c -0.3292,-0.41965 -0.3198,-0.42901 0.1,-0.0999 0.2547,0.19972 0.4631,0.40808 0.4631,0.46302 0,0.21776 -0.2173,0.0776 -0.5629,-0.36312 z m -73.785,-3.07646 c 0,-0.0549 0.2083,-0.2633 0.463,-0.46302 0.4196,-0.32911 0.429,-0.31975 0.1,0.0999 -0.3457,0.44073 -0.5629,0.58089 -0.5629,0.36313 z m 70.3454,-0.36313 c -0.3291,-0.41964 -0.3198,-0.429 0.1,-0.0999 0.2546,0.19972 0.463,0.40808 0.463,0.46302 0,0.21776 -0.2173,0.0776 -0.5629,-0.36313 z m -102.3938,-9.78958 c -0.3291,-0.41965 -0.3197,-0.429 0.1,-0.0999 0.2547,0.19972 0.463,0.40808 0.463,0.46302 0,0.21777 -0.2172,0.0776 -0.5629,-0.36312 z m 207.4334,0 c -0.3292,-0.41965 -0.3198,-0.429 0.1,-0.0999 0.4407,0.34565 0.5808,0.56292 0.3631,0.56292 -0.055,0 -0.2633,-0.20836 -0.463,-0.46302 z m -278.9694,-1.38906 c 0.2634,-0.29105 0.5384,-0.52917 0.6112,-0.52917 0.073,0 -0.083,0.23812 -0.3466,0.52917 -0.2634,0.29104 -0.5385,0.52916 -0.6112,0.52916 -0.073,0 0.083,-0.23812 0.3466,-0.52916 z m 70.354,-0.0662 -0.504,-0.59531 0.5953,0.50403 c 0.3274,0.27721 0.5953,0.5451 0.5953,0.59531 0,0.21173 -0.2129,0.0554 -0.6866,-0.50403 z m 137.0793,0.0662 c 0.2634,-0.29105 0.5384,-0.52917 0.6112,-0.52917 0.073,0 -0.083,0.23812 -0.3466,0.52917 -0.2634,0.29104 -0.5384,0.52916 -0.6112,0.52916 -0.073,0 0.083,-0.23812 0.3466,-0.52916 z m 70.354,-0.0662 -0.504,-0.59531 0.5953,0.50403 c 0.5595,0.47366 0.7158,0.68659 0.5041,0.68659 -0.05,0 -0.3181,-0.26789 -0.5954,-0.59531 z m -275.4061,-2.57969 c 0.2634,-0.29104 0.5384,-0.52916 0.6112,-0.52916 0.073,0 -0.083,0.23812 -0.3466,0.52916 -0.2634,0.29104 -0.5384,0.52917 -0.6112,0.52917 -0.073,0 0.083,-0.23813 0.3466,-0.52917 z m 65.4644,-0.19844 -0.6415,-0.7276 0.7276,0.64143 c 0.6801,0.59952 0.849,0.81378 0.6415,0.81378 -0.047,0 -0.3748,-0.32742 -0.7276,-0.72761 z m 68.2329,0.54687 c 0.191,-0.0764 0.4192,-0.067 0.5071,0.0209 0.088,0.0879 -0.068,0.15045 -0.3473,0.13896 -0.3082,-0.0127 -0.3709,-0.0754 -0.1598,-0.15985 z m 5.5562,0 c 0.191,-0.0764 0.4192,-0.067 0.5072,0.0209 0.088,0.0879 -0.068,0.15045 -0.3473,0.13896 -0.3082,-0.0127 -0.3709,-0.0754 -0.1599,-0.15985 z m 68.1799,-0.34843 c 0.2634,-0.29104 0.5384,-0.52916 0.6111,-0.52916 0.073,0 -0.083,0.23812 -0.3466,0.52916 -0.2633,0.29104 -0.5384,0.52917 -0.6111,0.52917 -0.073,0 0.083,-0.23813 0.3466,-0.52917 z m 65.4643,-0.19844 -0.6414,-0.7276 0.7276,0.64143 c 0.4002,0.35279 0.7276,0.68021 0.7276,0.72761 0,0.2075 -0.2143,0.0386 -0.8138,-0.64144 z m -269.9873,-2.44739 c 0.2634,-0.29104 0.5385,-0.52917 0.6112,-0.52917 0.073,0 -0.083,0.23813 -0.3466,0.52917 -0.2634,0.29104 -0.5384,0.52917 -0.6112,0.52917 -0.073,0 0.083,-0.23813 0.3466,-0.52917 z m 59.8944,0.0661 c -0.3291,-0.41964 -0.3197,-0.429 0.1,-0.0999 0.2547,0.19972 0.463,0.40808 0.463,0.46302 0,0.21776 -0.2172,0.0776 -0.5629,-0.36313 z m 147.539,-0.0661 c 0.2634,-0.29104 0.5384,-0.52917 0.6112,-0.52917 0.073,0 -0.083,0.23813 -0.3466,0.52917 -0.2634,0.29104 -0.5385,0.52917 -0.6112,0.52917 -0.073,0 0.083,-0.23813 0.3466,-0.52917 z m 59.8944,0.0661 c -0.3292,-0.41964 -0.3198,-0.429 0.1,-0.0999 0.2546,0.19972 0.463,0.40808 0.463,0.46302 0,0.21776 -0.2173,0.0776 -0.5629,-0.36313 z m -244.2263,-10.56563 c 0.191,-0.0764 0.4192,-0.067 0.5071,0.0209 0.088,0.0879 -0.068,0.15045 -0.3473,0.13896 -0.3082,-0.0127 -0.3709,-0.0754 -0.1598,-0.15985 z m 13.4937,0 c 0.191,-0.0764 0.4192,-0.067 0.5071,0.0209 0.088,0.0879 -0.068,0.15045 -0.3472,0.13896 -0.3082,-0.0127 -0.3709,-0.0754 -0.1599,-0.15985 z m 193.9396,0 c 0.191,-0.0764 0.4192,-0.067 0.5071,0.0209 0.088,0.0879 -0.068,0.15045 -0.3472,0.13896 -0.3083,-0.0127 -0.371,-0.0754 -0.1599,-0.15985 z m 13.4938,0 c 0.191,-0.0764 0.4192,-0.067 0.5071,0.0209 0.088,0.0879 -0.068,0.15045 -0.3473,0.13896 -0.3082,-0.0127 -0.3709,-0.0754 -0.1598,-0.15985 z m -219.0916,-0.25907 c 0.1819,-0.0734 0.4796,-0.0734 0.6615,0 0.1819,0.0734 0.033,0.13345 -0.3308,0.13345 -0.3638,0 -0.5126,-0.06 -0.3307,-0.13345 z m 9.525,0 c 0.1819,-0.0734 0.4796,-0.0734 0.6615,0 0.1819,0.0734 0.033,0.13345 -0.3307,0.13345 -0.3639,0 -0.5127,-0.06 -0.3308,-0.13345 z m 197.9084,0 c 0.1819,-0.0734 0.4795,-0.0734 0.6614,0 0.1819,0.0734 0.033,0.13345 -0.3307,0.13345 -0.3638,0 -0.5126,-0.06 -0.3307,-0.13345 z m 9.525,0 c 0.1819,-0.0734 0.4795,-0.0734 0.6614,0 0.1819,0.0734 0.033,0.13345 -0.3307,0.13345 -0.3638,0 -0.5126,-0.06 -0.3307,-0.13345 z m -212.4605,-0.27608 c 0.3275,-0.0631 0.8632,-0.0631 1.1907,0 0.3274,0.0631 0.06,0.11466 -0.5954,0.11466 -0.6548,0 -0.9227,-0.0516 -0.5953,-0.11466 z m 207.4334,0 c 0.3274,-0.0631 0.8632,-0.0631 1.1906,0 0.3274,0.0631 0.06,0.11466 -0.5953,0.11466 -0.6549,0 -0.9227,-0.0516 -0.5953,-0.11466 z m 18.5532,-39.69922 c -0.3291,-0.41964 -0.3197,-0.429 0.1,-0.0999 0.2547,0.19972 0.463,0.40808 0.463,0.46302 0,0.21776 -0.2173,0.0776 -0.5629,-0.36313 z m -241.3985,-2.4473 c 0.2633,-0.29104 0.5384,-0.52917 0.6111,-0.52917 0.073,0 -0.083,0.23813 -0.3466,0.52917 -0.2633,0.29104 -0.5384,0.52916 -0.6111,0.52916 -0.073,0 0.083,-0.23812 0.3466,-0.52916 z m 239.2818,0.0661 c -0.3291,-0.41964 -0.3197,-0.429 0.1,-0.0999 0.4408,0.34564 0.5809,0.56291 0.3632,0.56291 -0.055,0 -0.2633,-0.20835 -0.4631,-0.46302 z m -5.3964,-5.68854 -2.1104,-2.18281 2.1828,2.11046 c 2.0273,1.96013 2.3034,2.25516 2.1104,2.25516 -0.04,0 -1.022,-0.98226 -2.1828,-2.18281 z m -228.4615,-0.0661 c 0.9375,-0.94589 1.7641,-1.7198 1.8368,-1.7198 0.073,0 -0.6347,0.77391 -1.5722,1.7198 -0.9375,0.94588 -1.764,1.71979 -1.8368,1.71979 -0.073,0 0.6347,-0.77391 1.5722,-1.71979 z m -13.8906,-4.63021 c 0.2634,-0.29104 0.5384,-0.52917 0.6112,-0.52917 0.073,0 -0.083,0.23813 -0.3466,0.52917 -0.2634,0.29104 -0.5384,0.52916 -0.6112,0.52916 -0.073,0 0.083,-0.23812 0.3466,-0.52916 z m 256.2152,0.0661 c -0.3291,-0.41964 -0.3197,-0.429 0.1,-0.0999 0.4407,0.34564 0.5809,0.56291 0.3631,0.56291 -0.055,0 -0.2633,-0.20836 -0.463,-0.46302 z m -236.9006,-0.59531 c 0.2634,-0.29104 0.5384,-0.52917 0.6112,-0.52917 0.073,0 -0.083,0.23813 -0.3466,0.52917 -0.2634,0.29104 -0.5385,0.52917 -0.6112,0.52917 -0.073,0 0.083,-0.23813 0.3466,-0.52917 z m 217.3214,-0.19844 c -0.3291,-0.41964 -0.3197,-0.429 0.1,-0.0999 0.4408,0.34564 0.5809,0.56291 0.3632,0.56291 -0.055,0 -0.2633,-0.20836 -0.4631,-0.46302 z m -2.3812,-2.11666 c -0.3291,-0.41965 -0.3198,-0.42901 0.1,-0.0999 0.2546,0.19972 0.463,0.40808 0.463,0.46302 0,0.21776 -0.2173,0.0776 -0.5629,-0.36312 z m -225.259,-6.15157 c 0.2634,-0.29104 0.5384,-0.52916 0.6112,-0.52916 0.073,0 -0.083,0.23812 -0.3466,0.52916 -0.2634,0.29105 -0.5384,0.52917 -0.6112,0.52917 -0.073,0 0.083,-0.23812 0.3466,-0.52917 z m 237.959,-0.19843 c -0.3291,-0.41965 -0.3198,-0.42901 0.1,-0.0999 0.4407,0.34565 0.5809,0.56292 0.3631,0.56292 -0.055,0 -0.2633,-0.20836 -0.463,-0.46302 z m -2.9104,-2.64584 c -0.3291,-0.41964 -0.3198,-0.429 0.1,-0.0999 0.4407,0.34564 0.5809,0.56291 0.3631,0.56291 -0.055,0 -0.2633,-0.20836 -0.463,-0.46302 z m -135.4826,-29.61563 c 0.191,-0.0764 0.4192,-0.067 0.5072,0.0209 0.088,0.0879 -0.068,0.15046 -0.3473,0.13897 -0.3082,-0.0127 -0.3709,-0.0754 -0.1599,-0.15985 z m 38.8938,0 c 0.191,-0.0764 0.4192,-0.067 0.5071,0.0209 0.088,0.0879 -0.068,0.15046 -0.3473,0.13897 -0.3082,-0.0127 -0.3709,-0.0754 -0.1598,-0.15985 z m -33.6021,-0.52917 c 0.191,-0.0764 0.4192,-0.067 0.5071,0.0209 0.088,0.0879 -0.068,0.15045 -0.3472,0.13896 -0.3083,-0.0127 -0.371,-0.0754 -0.1599,-0.15985 z m 28.575,0 c 0.191,-0.0764 0.4192,-0.067 0.5071,0.0209 0.088,0.0879 -0.068,0.15045 -0.3472,0.13896 -0.3083,-0.0127 -0.371,-0.0754 -0.1599,-0.15985 z m -25.5438,-0.2672 c 0.2574,-0.0671 0.6146,-0.0627 0.7938,0.01 0.1791,0.0725 -0.031,0.12736 -0.4681,0.12197 -0.4366,-0.005 -0.5831,-0.0647 -0.3257,-0.13178 z m 21.9604,0 c 0.2575,-0.0671 0.6147,-0.0627 0.7938,0.01 0.1791,0.0725 -0.032,0.12736 -0.4681,0.12197 -0.4365,-0.005 -0.5831,-0.0647 -0.3257,-0.13178 z m -17.0706,-0.26795 c 0.3274,-0.0631 0.8632,-0.0631 1.1906,0 0.3274,0.0631 0.059,0.11466 -0.5953,0.11466 -0.6549,0 -0.9227,-0.0516 -0.5953,-0.11466 z m 11.6416,0 c 0.3275,-0.0631 0.8632,-0.0631 1.1907,0 0.3274,0.0631 0.06,0.11466 -0.5953,0.11466 -0.6549,0 -0.9228,-0.0516 -0.5954,-0.11466 z m -20.0918,-12.69402 c 0.191,-0.0764 0.4192,-0.067 0.5072,0.0209 0.088,0.0879 -0.068,0.15045 -0.3473,0.13896 -0.3082,-0.0127 -0.3709,-0.0754 -0.1599,-0.15985 z m 29.6334,0 c 0.191,-0.0764 0.4192,-0.067 0.5071,0.0209 0.088,0.0879 -0.068,0.15045 -0.3473,0.13896 -0.3082,-0.0127 -0.3709,-0.0754 -0.1598,-0.15985 z m -26.4749,-0.25907 c 0.1819,-0.0734 0.4796,-0.0734 0.6615,0 0.1819,0.0734 0.033,0.13345 -0.3308,0.13345 -0.3638,0 -0.5126,-0.06 -0.3307,-0.13345 z m 22.7542,0 c 0.1819,-0.0734 0.4795,-0.0734 0.6614,0 0.1819,0.0734 0.033,0.13345 -0.3307,0.13345 -0.3638,0 -0.5126,-0.06 -0.3307,-0.13345 z m -17.4594,-0.27648 c 0.3291,-0.0633 0.8053,-0.0609 1.0583,0.005 0.253,0.0662 -0.016,0.118 -0.5984,0.11506 -0.5821,-0.003 -0.7891,-0.0571 -0.4599,-0.1204 z m 11.9062,0 c 0.3291,-0.0633 0.8054,-0.0609 1.0583,0.005 0.253,0.0662 -0.016,0.118 -0.5984,0.11506 -0.582,-0.003 -0.789,-0.0571 -0.4599,-0.1204 z"
             id="path25" /><path
             style="fill:#b9b9b9;fill-opacity:1"
             d="m 1239.7748,596.36059 c 0.4755,-0.0589 1.1899,-0.0577 1.5875,0.003 0.3976,0.0604 0.01,0.10855 -0.8647,0.10706 -0.8731,-10e-4 -1.1984,-0.0509 -0.7228,-0.10976 z m 7.1437,0 c 0.4756,-0.0589 1.19,-0.0577 1.5875,0.003 0.3976,0.0604 0.01,0.10855 -0.8646,0.10706 -0.8731,-10e-4 -1.1984,-0.0509 -0.7229,-0.10976 z m -13.4985,-0.24806 c 0.1819,-0.0734 0.4796,-0.0734 0.6615,0 0.1819,0.0734 0.033,0.13345 -0.3307,0.13345 -0.3638,0 -0.5127,-0.0601 -0.3308,-0.13345 z m 20.6375,0 c 0.1819,-0.0734 0.4796,-0.0734 0.6615,0 0.1819,0.0734 0.033,0.13345 -0.3307,0.13345 -0.3638,0 -0.5127,-0.0601 -0.3308,-0.13345 z m -124.5863,-42.35655 c -0.3291,-0.41964 -0.3198,-0.429 0.1,-0.0999 0.2546,0.19972 0.463,0.40808 0.463,0.46302 0,0.21776 -0.2173,0.0776 -0.5629,-0.36313 z m 228.6337,0.36313 c 0,-0.0549 0.2084,-0.2633 0.4631,-0.46302 0.4196,-0.32911 0.429,-0.31975 0.1,0.0999 -0.3457,0.44073 -0.563,0.58089 -0.563,0.36313 z m -212.6178,-4.33776 c -11.5107,-8.9651 -21.9201,-19.45942 -30.2594,-30.50616 -6.3094,-8.35772 -10.8998,-15.76923 -15.6381,-25.2489 -3.23,-6.46201 -6.9373,-14.97366 -6.6264,-15.21354 0.094,-0.0728 0.9601,-1.08479 1.9239,-2.24896 5.2901,-6.38962 12.061,-11.74967 18.9643,-15.01268 7.1369,-3.37343 14.6524,-5.07508 23.8556,-5.40131 19.9886,-0.70853 36.4218,6.2032 48.2176,20.28013 2.3079,2.75426 6.4255,8.81962 8.0398,11.84293 l 1.0249,1.91947 -2.7018,2.52475 c -12.9852,12.13419 -22.7606,30.5969 -28.4604,53.75294 l -1.3815,5.61247 -6.9043,0.0761 -6.9044,0.0761 z m 187.1999,2.38276 -6.7648,-0.0705 -0.7407,-3.23678 c -5.6748,-24.79879 -16.0275,-44.36811 -30.2246,-57.13207 l -1.6323,-1.46759 1.6439,-2.89871 c 3.6464,-6.4296 7.0876,-10.94175 11.9763,-15.70348 6.1395,-5.98004 12.3984,-9.83304 20.222,-12.44883 5.7903,-1.93596 10.9056,-2.8058 17.9736,-3.05634 17.5351,-0.62156 32.2434,4.56769 43.6107,15.38633 2.7425,2.6102 6.3955,6.83224 6.3955,7.39184 0,1.08954 -4.0261,10.17455 -7.5118,16.95041 -10.9174,21.22257 -26.1827,39.44268 -45.4684,54.26929 l -2.7146,2.08696 z m -205.5971,-0.52479 c -0.3291,-0.41965 -0.3197,-0.42901 0.1,-0.0999 0.2547,0.19972 0.463,0.40808 0.463,0.46302 0,0.21776 -0.2172,0.0776 -0.5629,-0.36312 z m 236.3067,-2.26561 c 0,-0.0455 0.387,-0.43249 0.8599,-0.85989 l 0.8599,-0.77711 -0.7771,0.8599 c -0.7244,0.80154 -0.9427,0.98151 -0.9427,0.7771 z m -239.6053,-0.7771 -0.5041,-0.59532 0.5953,0.50403 c 0.3275,0.27722 0.5953,0.54511 0.5953,0.59532 0,0.21173 -0.2129,0.0554 -0.6865,-0.50403 z m -6.7418,-6.74688 -0.6414,-0.7276 0.7276,0.64143 c 0.68,0.59952 0.8489,0.81378 0.6414,0.81378 -0.047,0 -0.3748,-0.32743 -0.7276,-0.72761 z m 254.02,-0.19844 c 0.3418,-0.3638 0.681,-0.66145 0.7537,-0.66145 0.073,0 -0.1473,0.29765 -0.4891,0.66145 -0.3418,0.36381 -0.6809,0.66146 -0.7537,0.66146 -0.073,0 0.1473,-0.29765 0.4891,-0.66146 z m -257.2087,-3.24114 c -0.3291,-0.41965 -0.3198,-0.429 0.1,-0.0999 0.4407,0.34565 0.5808,0.56292 0.3631,0.56292 -0.055,0 -0.2633,-0.20836 -0.463,-0.46302 z m -2.1167,-2.38125 c -0.3291,-0.41965 -0.3197,-0.429 0.1,-0.0999 0.2547,0.19972 0.463,0.40808 0.463,0.46302 0,0.21777 -0.2173,0.0776 -0.5629,-0.36312 z m 264.0879,0.36312 c 0,-0.0549 0.2084,-0.2633 0.463,-0.46302 0.4197,-0.3291 0.429,-0.31975 0.1,0.0999 -0.3456,0.44073 -0.5629,0.58089 -0.5629,0.36312 z m -178.6048,-35.685 c 1.0964,-1.16818 1.334,-1.37824 1.334,-1.17956 0,0.0425 -0.5656,0.608 -1.2568,1.25677 l -1.2568,1.17956 z m 41.7491,-18.10075 c 0.1819,-0.0734 0.4795,-0.0734 0.6614,0 0.1819,0.0734 0.033,0.13346 -0.3307,0.13346 -0.3638,0 -0.5126,-0.0601 -0.3307,-0.13346 z m 8.9958,0 c 0.1819,-0.0734 0.4796,-0.0734 0.6615,0 0.1819,0.0734 0.033,0.13346 -0.3307,0.13346 -0.3638,0 -0.5127,-0.0601 -0.3308,-0.13346 z m -4.8948,-9.54251 c 0.5457,-0.0571 1.4387,-0.0571 1.9844,0 0.5457,0.0571 0.099,0.10379 -0.9922,0.10379 -1.0914,0 -1.5379,-0.0467 -0.9922,-0.10379 z m -35.9296,-15.21924 -1.0459,-1.12448 1.1245,1.04589 c 1.0457,0.97266 1.2461,1.20307 1.0459,1.20307 -0.043,0 -0.5493,-0.50601 -1.1245,-1.12448 z m 73.5666,0.0661 c 0.5684,-0.58209 1.093,-1.05834 1.1657,-1.05834 0.073,0 -0.3327,0.47625 -0.9011,1.05834 -0.5684,0.58208 -1.093,1.05833 -1.1657,1.05833 -0.073,0 0.3327,-0.47625 0.9011,-1.05833 z m -144.9917,-10.58981 c -20.3869,-2.30248 -36.5816,-16.9862 -40.6269,-36.83643 -1.0842,-5.31987 -1.0832,-12.91973 0,-18.19043 1.8546,-9.00474 6.143,-16.99827 12.5685,-23.42751 4.5694,-4.57206 8.9426,-7.5483 14.6561,-9.97458 13.4773,-5.72315 29.316,-4.64383 41.7104,2.84232 12.7962,7.72886 21.4433,21.64182 22.2674,35.8277 0.1375,2.36703 0.085,2.74144 -0.78,5.57999 -1.4797,4.85482 -2.5677,10.9912 -2.5718,14.50508 0,1.58743 -0.1345,2.03038 -1.3068,4.36329 -7.6836,15.29029 -22.8964,24.94269 -40.0984,25.44208 -2.0373,0.0592 -4.6567,-3e-5 -5.8209,-0.13151 z m 207.4334,0 c -15.9529,-1.80171 -29.6211,-11.24096 -36.6666,-25.32198 -1.1159,-2.23006 -1.294,-2.80406 -1.2973,-4.17953 -0.01,-3.64618 -1.0878,-9.80167 -2.573,-14.67743 -0.8579,-2.81655 -0.9166,-3.22954 -0.79,-5.55625 0.3484,-6.39927 2.9194,-14.37266 6.5245,-20.23381 10.7036,-17.40232 31.1624,-25.69172 50.9986,-20.66349 15.0356,3.81133 27.2508,15.22003 32.2015,30.07535 1.7985,5.39696 2.1174,7.57367 2.1281,14.52611 0.01,5.54062 -0.058,6.53278 -0.6095,9.11095 -2.646,12.36508 -9.3576,22.40067 -19.5818,29.27969 -5.2162,3.50954 -11.6281,6.08892 -17.7454,7.1386 -3.5459,0.60844 -9.5321,0.84704 -12.5891,0.50179 z m -260.1968,-10.46662 c 0.013,-0.30822 0.075,-0.37092 0.1598,-0.15985 0.076,0.191 0.067,0.4192 -0.021,0.50712 -0.088,0.0879 -0.1504,-0.0684 -0.1389,-0.34727 z m 321.9979,0 c 0.013,-0.30822 0.075,-0.37092 0.1598,-0.15985 0.077,0.191 0.067,0.4192 -0.021,0.50712 -0.088,0.0879 -0.1504,-0.0684 -0.1389,-0.34727 z M 1069.73,435.79591 c 0.013,-0.30822 0.075,-0.37092 0.1598,-0.15985 0.077,0.19099 0.067,0.4192 -0.021,0.50712 -0.088,0.0879 -0.1505,-0.0683 -0.139,-0.34727 z m 348.4562,0 c 0.013,-0.30822 0.075,-0.37092 0.1599,-0.15985 0.076,0.19099 0.067,0.4192 -0.021,0.50712 -0.088,0.0879 -0.1504,-0.0683 -0.139,-0.34727 z m -335.4916,-2.11667 c 0.013,-0.30822 0.075,-0.37092 0.1598,-0.15985 0.077,0.191 0.067,0.4192 -0.021,0.50712 -0.088,0.0879 -0.1504,-0.0683 -0.1389,-0.34727 z m 322.5271,0 c 0.013,-0.30822 0.075,-0.37092 0.1598,-0.15985 0.076,0.191 0.067,0.4192 -0.021,0.50712 -0.088,0.0879 -0.1504,-0.0683 -0.1389,-0.34727 z m -335.7354,-1.69774 c 0,-0.3638 0.06,-0.51263 0.1334,-0.33073 0.073,0.1819 0.073,0.47956 0,0.66146 -0.073,0.1819 -0.1334,0.0331 -0.1334,-0.33073 z m 348.9854,0 c 0,-0.3638 0.06,-0.51263 0.1335,-0.33073 0.073,0.1819 0.073,0.47956 0,0.66146 -0.073,0.1819 -0.1335,0.0331 -0.1335,-0.33073 z m -336.0012,-2.64583 c 0,-0.50933 0.054,-0.71769 0.121,-0.46302 0.066,0.25466 0.066,0.67138 0,0.92604 -0.067,0.25466 -0.121,0.0463 -0.121,-0.46302 z m 323.0562,0 c 0,-0.50933 0.055,-0.71769 0.121,-0.46302 0.067,0.25466 0.067,0.67138 0,0.92604 -0.066,0.25466 -0.121,0.0463 -0.121,-0.46302 z m -336.2648,-3.83646 c 0,-0.87313 0.051,-1.19842 0.1098,-0.72287 0.059,0.47555 0.058,1.18993 0,1.5875 -0.06,0.39758 -0.1086,0.008 -0.1071,-0.86463 z m 349.5119,-0.13229 c 0,-0.80037 0.05,-1.12779 0.1102,-0.72761 0.061,0.40019 0.061,1.05503 0,1.45521 -0.061,0.40018 -0.1102,0.0728 -0.1102,-0.7276 z m -226.7347,-4.23334 c 0,-1.23692 0.045,-1.74294 0.1012,-1.12448 0.056,0.61847 0.056,1.6305 0,2.24896 -0.056,0.61847 -0.1012,0.11245 -0.1012,-1.12448 z m 103.9777,0 c 0,-1.0914 0.047,-1.53789 0.1038,-0.99218 0.057,0.5457 0.057,1.43867 0,1.98437 -0.057,0.5457 -0.1038,0.0992 -0.1038,-0.99219 z m -226.7549,-3.30729 c 0,-0.87312 0.051,-1.19841 0.1098,-0.72286 0.059,0.47554 0.058,1.18992 0,1.5875 -0.06,0.39757 -0.1086,0.008 -0.1071,-0.86464 z m 349.5119,0.13229 c 0,-0.80036 0.05,-1.12778 0.1102,-0.7276 0.061,0.40018 0.061,1.05503 0,1.45521 -0.061,0.40018 -0.1102,0.0728 -0.1102,-0.72761 z m -336.3033,-3.96875 c 0,-0.50932 0.054,-0.71768 0.121,-0.46302 0.066,0.25466 0.066,0.67138 0,0.92604 -0.067,0.25467 -0.121,0.0463 -0.121,-0.46302 z m 323.0562,0 c 0,-0.50932 0.055,-0.71768 0.121,-0.46302 0.067,0.25466 0.067,0.67138 0,0.92604 -0.066,0.25467 -0.121,0.0463 -0.121,-0.46302 z m 12.945,-2.64583 c 0,-0.3638 0.06,-0.51263 0.1335,-0.33073 0.073,0.1819 0.073,0.47956 0,0.66146 -0.073,0.1819 -0.1335,0.0331 -0.1335,-0.33073 z m -349.0063,-0.15434 c 0.013,-0.30822 0.075,-0.37092 0.1599,-0.15985 0.076,0.19099 0.067,0.4192 -0.021,0.50712 -0.088,0.0879 -0.1505,-0.0684 -0.139,-0.34727 z m 13.2501,-1.69774 c 0,-0.36381 0.06,-0.51263 0.1334,-0.33073 0.073,0.1819 0.073,0.47955 0,0.66146 -0.073,0.1819 -0.1334,0.0331 -0.1334,-0.33073 z m 322.5062,0.11024 c 0.013,-0.30822 0.075,-0.37092 0.1598,-0.15985 0.076,0.19099 0.067,0.4192 -0.021,0.50712 -0.088,0.0879 -0.1504,-0.0684 -0.1389,-0.34727 z M 1069.73,407.48549 c 0.013,-0.30822 0.075,-0.37092 0.1598,-0.15985 0.077,0.191 0.067,0.4192 -0.021,0.50712 -0.088,0.0879 -0.1505,-0.0684 -0.139,-0.34727 z m 348.4562,0 c 0.013,-0.30822 0.075,-0.37092 0.1599,-0.15985 0.076,0.191 0.067,0.4192 -0.021,0.50712 -0.088,0.0879 -0.1504,-0.0684 -0.139,-0.34727 z m -335.227,-1.05833 c 0.013,-0.30822 0.075,-0.37092 0.1598,-0.15985 0.076,0.19099 0.067,0.4192 -0.021,0.50712 -0.088,0.0879 -0.1504,-0.0684 -0.1389,-0.34727 z m 321.9979,0 c 0.013,-0.30822 0.075,-0.37092 0.1598,-0.15985 0.077,0.19099 0.067,0.4192 -0.021,0.50712 -0.088,0.0879 -0.1504,-0.0684 -0.1389,-0.34727 z m -197.797,-22.07066 c 0.7167,-0.7276 1.3626,-1.32292 1.4354,-1.32292 0.073,0 -0.4541,0.59532 -1.1708,1.32292 -0.7166,0.7276 -1.3625,1.32292 -1.4353,1.32292 -0.073,0 0.4541,-0.59532 1.1707,-1.32292 z m 73.5443,-0.0661 -1.313,-1.38906 1.3891,1.31297 c 1.2907,1.22004 1.5104,1.46516 1.3129,1.46516 -0.042,0 -0.6669,-0.62508 -1.389,-1.38907 z m -37.8917,-15.20958 c 0.6913,-0.0545 1.8224,-0.0545 2.5136,0 0.6912,0.0545 0.1257,0.0991 -1.2568,0.0991 -1.3824,0 -1.948,-0.0446 -1.2568,-0.0991 z m -123.0974,-50.97 c 0,-0.0549 0.2084,-0.2633 0.4631,-0.46302 0.4196,-0.32911 0.429,-0.31975 0.1,0.0999 -0.3457,0.44073 -0.563,0.58089 -0.563,0.36313 z m 248.1455,-0.36313 c -0.3291,-0.41964 -0.3198,-0.429 0.1,-0.0999 0.2546,0.19972 0.463,0.40808 0.463,0.46302 0,0.21776 -0.2173,0.0776 -0.5629,-0.36313 z m -246.558,-1.48895 c 0,-0.055 0.2084,-0.26331 0.4631,-0.46302 0.4196,-0.32911 0.429,-0.31975 0.1,0.0999 -0.3457,0.44073 -0.563,0.58089 -0.563,0.36313 z m 1.8521,-2.11667 c 0,-0.0549 0.2084,-0.2633 0.4631,-0.46302 0.4196,-0.32911 0.429,-0.31975 0.1,0.0999 -0.3456,0.44073 -0.5629,0.58089 -0.5629,0.36313 z m 241.2663,-0.36313 c -0.3291,-0.41964 -0.3198,-0.429 0.1,-0.0999 0.4407,0.34564 0.5809,0.56291 0.3631,0.56291 -0.055,0 -0.2633,-0.20835 -0.463,-0.46302 z m -237.5732,-3.57187 c 1.0965,-1.16819 1.334,-1.37824 1.334,-1.17957 0,0.0425 -0.5655,0.60801 -1.2568,1.25677 l -1.2567,1.17957 z m 234.4177,0.13229 -0.9118,-0.99219 0.9922,0.9118 c 0.9235,0.84868 1.1138,1.07258 0.9118,1.07258 -0.044,0 -0.4907,-0.44649 -0.9922,-0.99219 z m -249.7524,-2.81187 c 0,-0.055 0.2083,-0.26331 0.463,-0.46302 0.4196,-0.32911 0.429,-0.31975 0.1,0.0999 -0.3457,0.44073 -0.5629,0.58089 -0.5629,0.36313 z m 264.5496,-0.36313 c -0.3292,-0.41964 -0.3198,-0.429 0.1,-0.0999 0.4407,0.34564 0.5808,0.56291 0.3631,0.56291 -0.055,0 -0.2633,-0.20836 -0.463,-0.46302 z m -243.6476,-2.57969 c 0.4937,-0.50932 0.9571,-0.92604 1.0299,-0.92604 0.073,0 -0.2716,0.41672 -0.7653,0.92604 -0.4936,0.50933 -0.9571,0.92604 -1.0298,0.92604 -0.073,0 0.2716,-0.41671 0.7652,-0.92604 z m 222.765,-0.33073 -0.9118,-0.99218 0.9922,0.91179 c 0.9235,0.84869 1.1138,1.07258 0.9118,1.07258 -0.044,0 -0.4907,-0.44648 -0.9922,-0.99219 z m 18.7659,0.52917 c -0.3291,-0.41964 -0.3198,-0.429 0.1,-0.0999 0.2546,0.19971 0.463,0.40807 0.463,0.46302 0,0.21776 -0.2173,0.0776 -0.5629,-0.36313 z m -2.8967,-3.175 -0.6414,-0.7276 0.7276,0.64143 c 0.4002,0.35279 0.7276,0.68021 0.7276,0.7276 0,0.20751 -0.2143,0.0386 -0.8138,-0.64143 z m -253.98,-0.19844 c 0.3418,-0.3638 0.681,-0.66146 0.7537,-0.66146 0.073,0 -0.1473,0.29766 -0.4891,0.66146 -0.3418,0.3638 -0.6809,0.66146 -0.7537,0.66146 -0.073,0 0.1473,-0.29766 0.4891,-0.66146 z m 18.7854,0.0324 c 0,-0.0549 0.2084,-0.2633 0.4631,-0.46302 0.4196,-0.32911 0.429,-0.31975 0.1,0.0999 -0.3456,0.44073 -0.5629,0.58089 -0.5629,0.36313 z m 215.8663,-0.36313 c -0.3291,-0.41964 -0.3198,-0.429 0.1,-0.0999 0.4407,0.34564 0.5809,0.56291 0.3631,0.56291 -0.055,0 -0.2633,-0.20836 -0.463,-0.46302 z m -213.7496,-1.48895 c 0,-0.055 0.2084,-0.26331 0.463,-0.46302 0.4197,-0.32911 0.429,-0.31975 0.1,0.0999 -0.3456,0.44073 -0.5629,0.58089 -0.5629,0.36313 z m 209.7808,-1.95063 c -0.3291,-0.41964 -0.3197,-0.429 0.1,-0.0999 0.4408,0.34564 0.5809,0.56291 0.3632,0.56291 -0.055,0 -0.2633,-0.20836 -0.4631,-0.46302 z m -224.0683,-2.84427 c 0.3418,-0.3638 0.6809,-0.66146 0.7537,-0.66146 0.073,0 -0.1473,0.29766 -0.4891,0.66146 -0.3418,0.3638 -0.681,0.66146 -0.7537,0.66146 -0.073,0 0.1473,-0.29766 0.4891,-0.66146 z m 240.2216,-0.33073 -0.6414,-0.7276 0.7276,0.64143 c 0.4002,0.35279 0.7276,0.68021 0.7276,0.7276 0,0.20751 -0.2142,0.0386 -0.8138,-0.64143 z m -234.6654,-4.66396 c 0,-0.0549 0.2084,-0.2633 0.4631,-0.46302 0.4196,-0.32911 0.429,-0.31975 0.1,0.0999 -0.3457,0.44073 -0.563,0.58088 -0.563,0.36312 z m 229.0955,-0.36312 c -0.3291,-0.41965 -0.3198,-0.42901 0.1,-0.0999 0.4407,0.34565 0.5809,0.56292 0.3631,0.56292 -0.055,0 -0.2633,-0.20836 -0.463,-0.46302 z m -92.3555,-28.02814 c 0.191,-0.0764 0.4192,-0.067 0.5071,0.0209 0.088,0.0879 -0.068,0.15045 -0.3472,0.13896 -0.3082,-0.0127 -0.3709,-0.0754 -0.1599,-0.15985 z m -39.6875,-0.52917 c 0.191,-0.0764 0.4192,-0.067 0.5071,0.0209 0.088,0.0879 -0.068,0.15045 -0.3472,0.13897 -0.3082,-0.0127 -0.3709,-0.0754 -0.1599,-0.15986 z m 35.4542,0 c 0.191,-0.0764 0.4192,-0.067 0.5071,0.0209 0.088,0.0879 -0.068,0.15045 -0.3473,0.13897 -0.3082,-0.0127 -0.3709,-0.0754 -0.1598,-0.15986 z m -33.0895,-0.25907 c 0.1819,-0.0734 0.4796,-0.0734 0.6615,0 0.1819,0.0734 0.033,0.13345 -0.3307,0.13345 -0.3638,0 -0.5127,-0.06 -0.3308,-0.13345 z m 30.4437,-0.006 c 0.191,-0.0764 0.4192,-0.067 0.5071,0.0209 0.088,0.0879 -0.068,0.15045 -0.3473,0.13896 -0.3082,-0.0127 -0.3709,-0.0754 -0.1598,-0.15985 z m -27.5332,-0.25907 c 0.1819,-0.0734 0.4795,-0.0734 0.6614,0 0.1819,0.0734 0.033,0.13345 -0.3307,0.13345 -0.3638,0 -0.5126,-0.06 -0.3307,-0.13345 z m 24.3416,0 c 0.1819,-0.0734 0.4796,-0.0734 0.6615,0 0.1819,0.0734 0.033,0.13345 -0.3307,0.13345 -0.3638,0 -0.5127,-0.06 -0.3308,-0.13345 z m -19.976,-0.27174 c 0.2546,-0.0665 0.6714,-0.0665 0.926,0 0.2547,0.0666 0.046,0.121 -0.463,0.121 -0.5093,0 -0.7177,-0.0545 -0.463,-0.121 z m 15.3458,0 c 0.2547,-0.0665 0.6714,-0.0665 0.9261,0 0.2546,0.0666 0.046,0.121 -0.4631,0.121 -0.5093,0 -0.7176,-0.0545 -0.463,-0.121 z M 1233.42,247.1271 c 0.1819,-0.0734 0.4796,-0.0734 0.6615,0 0.1819,0.0734 0.033,0.13345 -0.3307,0.13345 -0.3638,0 -0.5127,-0.06 -0.3308,-0.13345 z m 20.6375,0 c 0.1819,-0.0734 0.4796,-0.0734 0.6615,0 0.1819,0.0734 0.033,0.13345 -0.3307,0.13345 -0.3638,0 -0.5127,-0.06 -0.3308,-0.13345 z m -14.2827,-0.28111 c 0.4755,-0.0589 1.1899,-0.0577 1.5875,0.003 0.3976,0.0604 0.01,0.10856 -0.8647,0.10707 -0.8731,-0.001 -1.1984,-0.0509 -0.7228,-0.10977 z m 7.1437,0 c 0.4756,-0.0589 1.19,-0.0577 1.5875,0.003 0.3976,0.0604 0.01,0.10856 -0.8646,0.10707 -0.8731,-0.001 -1.1984,-0.0509 -0.7229,-0.10977 z"
             id="path24" /><path
             style="fill:#a3a3a3;fill-opacity:1"
             d="m 1237.0581,596.27039 c -55.6657,-2.20495 -107.0138,-30.92019 -138.1073,-77.23322 -25.2405,-37.59505 -34.9149,-83.82657 -26.8663,-128.38728 12.9703,-71.80969 69.1625,-128.0019 140.9722,-140.97217 22.9628,-4.14755 47.394,-3.58501 70.0389,1.61266 9.678,2.22141 19.4474,5.39235 29.0033,9.41391 31.2599,13.15554 58.0905,35.2857 77.0894,63.58404 23.4192,34.88233 33.4992,77.30435 28.2926,119.07025 -7.182,57.61165 -42.7456,108.10311 -94.5655,134.25953 -19.4666,9.82583 -39.9066,15.76565 -61.9125,17.99164 -3.7044,0.37471 -16.1606,0.99172 -18.124,0.89775 -0.4366,-0.0209 -3.0559,-0.12759 -5.8208,-0.23711 z m 21.4991,-13.59415 c 18.2429,-1.74454 35.606,-6.28107 51.6078,-13.48378 5.3742,-2.41902 12.6887,-6.18484 16.7191,-8.6077 20.502,-12.32465 38.4215,-29.37086 51.5457,-49.03369 8.6298,-12.92927 15.8447,-28.05378 20.2637,-42.4783 3.6177,-11.80932 5.8369,-23.84386 6.7664,-36.69439 0.3447,-4.76665 0.3447,-16.66461 0,-21.43126 -2.2528,-31.14691 -12.5958,-59.60288 -30.774,-84.66666 -9.3857,-12.94086 -22.2932,-25.84843 -35.2341,-35.23413 -21.4737,-15.57435 -46.1781,-25.67715 -71.9667,-29.43049 -8.7538,-1.27405 -11.6757,-1.45846 -23.2833,-1.46946 -11.8548,-0.0112 -14.7582,0.17927 -24.0771,1.57973 -64.6447,9.71488 -117.0731,57.29671 -132.9347,120.64601 -3.138,12.53285 -4.4763,22.84776 -4.7028,36.24792 -0.3091,18.28234 1.8135,33.67901 6.9545,50.4439 4.3946,14.33098 11.9053,30.03807 20.4637,42.79568 13.6957,20.41553 33.0256,38.3458 54.459,50.5158 2.6467,1.50286 4.9247,2.66297 5.0621,2.57804 0.1375,-0.0849 0.2898,-0.0488 0.3386,0.0804 0.1381,0.36536 5.5957,3.02348 10.6182,5.17157 17.1694,7.34335 34.7014,11.52331 53.8966,12.84995 4.7737,0.32992 19.2223,0.1043 24.2773,-0.3791 z m 36.5432,-77.33901 c -0.3292,-0.41964 -0.3198,-0.429 0.1,-0.0999 0.2547,0.19972 0.4631,0.40808 0.4631,0.46302 0,0.21776 -0.2173,0.0776 -0.5629,-0.36313 z m -1.9758,-2.24896 -0.504,-0.59531 0.5953,0.50403 c 0.3274,0.27721 0.5953,0.5451 0.5953,0.59531 0,0.21173 -0.2129,0.0554 -0.6866,-0.50403 z m -4.1097,-4.10104 c -0.3291,-0.41964 -0.3197,-0.429 0.1,-0.0999 0.2547,0.19972 0.4631,0.40808 0.4631,0.46302 0,0.21776 -0.2173,0.0776 -0.563,-0.36313 z m -89.1308,-0.69521 c 0,-0.0549 0.2084,-0.2633 0.463,-0.46302 0.4197,-0.3291 0.429,-0.31975 0.1,0.0999 -0.3456,0.44073 -0.5629,0.58088 -0.5629,0.36312 z m 36.1983,-15.42668 c 0.191,-0.0764 0.4192,-0.067 0.5071,0.0209 0.088,0.0879 -0.068,0.15046 -0.3472,0.13897 -0.3083,-0.0127 -0.371,-0.0754 -0.1599,-0.15986 z m 15.0813,0 c 0.191,-0.0764 0.4192,-0.067 0.5071,0.0209 0.088,0.0879 -0.068,0.15046 -0.3473,0.13897 -0.3082,-0.0127 -0.3709,-0.0754 -0.1598,-0.15986 z m -10.9968,-0.26622 c 0.2547,-0.0666 0.6714,-0.0666 0.9261,0 0.2546,0.0665 0.046,0.121 -0.4631,0.121 -0.5093,0 -0.7176,-0.0545 -0.463,-0.121 z m 6.35,0 c 0.2547,-0.0666 0.6714,-0.0666 0.9261,0 0.2546,0.0665 0.046,0.121 -0.4631,0.121 -0.5093,0 -0.7176,-0.0545 -0.463,-0.121 z m -36.6124,-22.24106 c -0.3291,-0.41964 -0.3197,-0.429 0.1,-0.0999 0.2547,0.19972 0.463,0.40808 0.463,0.46302 0,0.21776 -0.2172,0.0776 -0.5629,-0.36313 z m 67.7671,0.36313 c 0,-0.0549 0.2084,-0.2633 0.463,-0.46302 0.4197,-0.32911 0.429,-0.31975 0.1,0.0999 -0.3456,0.44073 -0.5629,0.58089 -0.5629,0.36313 z m 5.2917,-5.29167 c 0,-0.0549 0.2083,-0.2633 0.463,-0.46302 0.4196,-0.32911 0.429,-0.31975 0.1,0.0999 -0.3457,0.44073 -0.5629,0.58088 -0.5629,0.36312 z m -90.7312,-29.42319 c 0.013,-0.30823 0.075,-0.37092 0.1598,-0.15986 0.076,0.191 0.067,0.4192 -0.021,0.50712 -0.088,0.0879 -0.1504,-0.0684 -0.1389,-0.34726 z m 0,-9.78959 c 0.013,-0.30822 0.075,-0.37092 0.1598,-0.15985 0.076,0.191 0.067,0.4192 -0.021,0.50712 -0.088,0.0879 -0.1504,-0.0684 -0.1389,-0.34727 z m 103.4521,0 c 0.013,-0.30822 0.075,-0.37092 0.1598,-0.15985 0.076,0.191 0.067,0.4192 -0.021,0.50712 -0.088,0.0879 -0.1504,-0.0684 -0.1389,-0.34727 z m -56.6914,-46.85765 c 0.191,-0.0764 0.4192,-0.067 0.5071,0.0209 0.088,0.0879 -0.068,0.15045 -0.3472,0.13896 -0.3082,-0.0127 -0.3709,-0.0754 -0.1599,-0.15985 z m 9.7896,0 c 0.191,-0.0764 0.4192,-0.067 0.5071,0.0209 0.088,0.0879 -0.068,0.15045 -0.3472,0.13896 -0.3083,-0.0127 -0.371,-0.0754 -0.1599,-0.15985 z"
             id="path23" /><path
             style="fill:#8c8c8c;fill-opacity:1"
             d="m 1234.2799,583.05534 c -21.5979,-1.4927 -41.5322,-6.7085 -60.3911,-15.80132 -3.5139,-1.69421 -4.1672,-2.10074 -4.1672,-2.59305 0,-0.95999 1.0171,-6.58278 2.0086,-11.10343 8.0034,-36.49356 24.9134,-59.53618 49.5852,-67.56804 5.681,-1.84946 10.8596,-2.77754 17.9814,-3.22255 9.6275,-0.60159 19.9301,0.70121 28.5852,3.61475 3.5095,1.18138 9.9558,4.33033 13.2292,6.46237 18.3757,11.96845 30.9362,34.66123 36.6071,66.13743 0.354,1.96453 0.7222,4.1331 0.8184,4.81903 l 0.1749,1.24716 -2.8971,1.45293 c -17.4441,8.74852 -36.8139,14.22065 -57.2573,16.17562 -5.055,0.4834 -19.5036,0.70902 -24.2773,0.3791 z m 3.5975,-110.36473 c -23.7979,-3.05368 -42.1511,-21.25218 -45.2715,-44.88985 -3.7317,-28.26841 16.3785,-54.43672 44.6641,-58.11903 31.1738,-4.05829 58.6579,20.04943 58.6579,51.45185 0,26.1718 -19.1959,48.03203 -45.1912,51.46362 -3.2323,0.42668 -9.8854,0.47501 -12.8593,0.0934 z"
             id="path22" /></g></g><path
         style="-inkscape-font-specification:'Roboto Light';fill:#8c8c8c;stroke-width:88.2444;stroke-opacity:0.996078"
         d="m -1036.3065,426.71777 h -41.0333 v 112.01441 h -9.8447 V 426.71777 h -42.4397 v -8.43831 h 93.3177 z m 42.85339,113.75171 q -17.37299,0 -28.21039,-12.24382 -10.8375,-12.32655 -10.8375,-31.6023 v -4.55006 q 0,-19.35848 10.9202,-31.93321 11.0029,-12.57473 27.21768,-12.57473 16.29751,0 25.14946,10.50652 8.93468,10.42379 8.93468,28.12769 v 7.69375 h -62.29452 v 2.73004 q 0,15.30478 7.6937,25.39766 7.7765,10.09288 21.42669,10.09288 8.19012,0 15.05659,-2.64732 6.86646,-2.73004 11.41653,-7.2801 l 4.21916,6.78373 q -4.71553,4.96371 -12.40928,8.27285 -7.61102,3.22642 -18.283,3.22642 z m -0.91001,-84.46581 q -11.41658,0 -18.77938,8.19012 -7.3628,8.19012 -8.6038,20.76485 l 0.2482,0.49638 h 51.2917 v -2.06822 q 0,-11.9129 -6.28737,-19.60665 -6.20463,-7.77648 -17.86935,-7.77648 z m 110.77348,82.72851 q -0.91001,-4.71553 -1.40638,-8.1074 -0.41364,-3.39187 -0.41364,-6.94919 -4.6328,7.28011 -12.98838,12.07836 -8.35558,4.71553 -19.19302,4.71553 -13.15383,0 -20.43394,-6.9492 -7.19738,-7.03192 -7.19738,-19.02756 0,-11.99563 10.50652,-19.4412 10.50652,-7.44556 27.30041,-7.44556 h 22.00579 v -11.08562 q 0,-9.59651 -6.12191,-15.05659 -6.03919,-5.46008 -17.12481,-5.46008 -10.1756,0 -16.46297,4.96371 -6.20464,4.96371 -6.20464,12.492 h -9.18286 l -0.16546,-0.49637 q -0.49637,-10.09288 8.60376,-17.7039 9.18287,-7.69375 23.90854,-7.69375 14.72568,0 23.66036,7.52829 8.93468,7.5283 8.93468,21.59214 v 44.01157 q 0,4.71553 0.49637,9.18287 0.5791,4.46734 1.82003,8.85195 z m -32.92594,-7.03193 q 11.41653,0 19.77211,-5.37735 8.35558,-5.46008 11.33381,-13.98112 v -17.1248 h -22.08852 q -12.07836,0 -19.93757,5.791 -7.85921,5.70826 -7.85921,13.81566 0,7.61102 4.96371,12.24382 5.04644,4.63279 13.81567,4.63279 z m 75.7793,-82.48032 0.91001,14.72567 q 4.30188,-7.77648 11.41653,-12.07836 7.19739,-4.30188 17.04208,-4.30188 10.25833,0 17.1248,4.96371 6.86647,4.88098 9.84469,14.97386 4.0537,-9.34832 11.49927,-14.64295 7.52829,-5.29462 18.11754,-5.29462 14.31203,0 22.08851,9.51378 7.85921,9.51377 7.85921,29.45135 v 52.20169 h -9.92742 v -52.36715 q 0,-16.5457 -5.87372,-23.32944 -5.87373,-6.86647 -16.21479,-6.86647 -11.33381,0 -17.53845,6.9492 -6.20464,6.86646 -7.85921,17.78663 0,0.91001 0,1.82002 0.0827,0.91002 0.0827,2.3164 v 53.69081 h -10.01015 v -52.36715 q 0,-16.21479 -5.95645,-23.16398 -5.87372,-7.03193 -16.21479,-7.03193 -10.42379,0 -16.62843,5.29463 -6.12191,5.21189 -8.60376,14.14657 v 63.12186 h -9.92743 v -89.51225 z m 202.18848,60.47454 3.47459,16.38025 h 0.49637 l 4.13643,-16.38025 19.02756,-60.47454 h 8.52103 l 19.02756,60.47454 4.13643,16.87662 h 0.49637 l 3.88824,-16.87662 15.9666,-60.47454 h 10.58925 l -26.05948,89.51225 h -8.43831 l -20.26848,-61.2191 -3.55733,-14.47749 h -0.49637 l -3.55733,14.47749 -19.85484,61.2191 h -8.52104 l -25.97675,-89.51225 h 10.58925 z m 103.41063,-17.04207 q 0,-19.77212 10.83743,-32.42958 10.83744,-12.65746 28.7068,-12.65746 17.95208,0 28.78952,12.65746 10.83743,12.65746 10.83743,32.42958 v 2.73004 q 0,19.85484 -10.83743,32.5123 -10.75471,12.57474 -28.62407,12.57474 -18.03481,0 -28.87225,-12.57474 -10.83743,-12.65746 -10.83743,-32.5123 z m 9.92742,2.73004 q 0,15.55296 7.85921,26.14221 7.85921,10.58925 21.92305,10.58925 13.81567,0 21.67487,-10.58925 7.94194,-10.58925 7.94194,-26.14221 v -2.73004 q 0,-15.30478 -7.94194,-25.97676 -7.94193,-10.67197 -21.84032,-10.67197 -13.89839,0 -21.7576,10.67197 -7.85921,10.67198 -7.85921,25.97676 z m 130.79376,-37.64148 -7.03192,-0.49637 q -9.34833,0 -15.38751,5.29463 -5.95645,5.21189 -8.52103,14.39476 v 61.7982 h -9.92743 v -89.51225 h 8.6865 l 1.24093,14.89113 v 0.99274 q 3.88824,-8.27285 10.42379,-12.90565 6.53555,-4.63279 15.55296,-4.63279 1.82003,0 3.4746,0.33091 1.65457,0.24819 2.73004,0.5791 z m 37.39333,37.39329 h -10.42379 v 43.59793 h -9.92743 V 409.6757 h 9.92743 v 76.93751 h 9.43105 l 34.33233,-37.39328 h 11.58199 l 0.16546,0.41364 -36.73146,40.6197 39.70968,48.06527 -0.24818,0.41364 h -11.33381 z"
         id="text1"
         aria-label="Team work" /></g></g></svg>
