<?xml version="1.0" encoding="UTF-8" standalone="no"?>
<!-- Created with Inkscape (http://www.inkscape.org/) -->

<svg
   width="92.604164mm"
   height="92.604179mm"
   viewBox="0 0 92.604164 92.604179"
   version="1.1"
   id="svg1"
   xml:space="preserve"
   inkscape:export-filename="github.svg"
   inkscape:export-xdpi="96"
   inkscape:export-ydpi="96"
   xmlns:inkscape="http://www.inkscape.org/namespaces/inkscape"
   xmlns:sodipodi="http://sodipodi.sourceforge.net/DTD/sodipodi-0.dtd"
   xmlns="http://www.w3.org/2000/svg"
   xmlns:svg="http://www.w3.org/2000/svg"><sodipodi:namedview
     id="namedview1"
     pagecolor="#ffffff"
     bordercolor="#000000"
     borderopacity="0.25"
     inkscape:showpageshadow="2"
     inkscape:pageopacity="0.0"
     inkscape:pagecheckerboard="0"
     inkscape:deskcolor="#d1d1d1"
     inkscape:document-units="mm" /><defs
     id="defs1" /><g
     inkscape:label="Layer 1"
     inkscape:groupmode="layer"
     id="layer1"
     transform="translate(111.31407,-101.27887)"><path
       d="m -38.002487,101.27887 h -54.019002 c -10.653411,0 -19.292581,8.63917 -19.292581,19.29258 v 54.01901 c 0,10.65341 8.63917,19.29258 19.292581,19.29258 h 54.019002 c 10.657204,0 19.292584,-8.63917 19.292584,-19.29258 v -54.01901 c 0,-10.65341 -8.63538,-19.29258 -19.292584,-19.29258 z m -42.443482,73.31159 h -11.57552 v -42.44349 h 11.57552 z m -5.787836,-47.33619 c -3.727353,0 -6.752369,-3.04821 -6.752369,-6.80634 0,-3.75812 3.025016,-6.80633 6.752369,-6.80633 3.727353,0 6.752379,3.04821 6.752379,6.80633 0,3.75813 -3.021226,6.80634 -6.752379,6.80634 z m 52.089925,47.33619 h -11.57553 v -21.62301 c 0,-12.99549 -15.434117,-12.01156 -15.434117,0 v 21.62301 h -11.57552 v -42.44349 h 11.57552 v 6.81027 c 5.386493,-9.9782 27.009647,-10.7151 27.009647,9.55355 z"
       id="path1"
       style="fill:#ffffff;stroke-width:3.85851" /></g></svg>
