<?xml version="1.0" encoding="UTF-8" standalone="no"?>
<!-- Created with Inkscape (http://www.inkscape.org/) -->

<svg
   width="8.4666567mm"
   height="8.4660292mm"
   viewBox="0 0 8.4666567 8.4660292"
   version="1.1"
   id="svg1"
   xml:space="preserve"
   xmlns="http://www.w3.org/2000/svg"
   xmlns:svg="http://www.w3.org/2000/svg"><defs
     id="defs1" /><g
     id="layer1"
     transform="translate(-32.634873,-76.316847)"><path
       style="fill:#999999;stroke-width:0.0586426"
       d="M 34.107048,84.75932 C 33.707466,84.6923 33.3112,84.467558 33.055738,84.163066 32.541615,83.550268 32.494634,82.711818 32.936225,82.03014 c 0.07086,-0.109388 2.21765,-2.276297 2.375859,-2.398127 0.599604,-0.461726 1.402604,-0.495112 2.043957,-0.08498 0.328241,0.209902 0.448344,0.415626 0.357836,0.612929 -0.06277,0.136845 -0.178845,0.211486 -0.327035,0.210306 -0.102433,-8.15e-4 -0.158862,-0.02822 -0.302306,-0.146834 -0.205352,-0.169799 -0.431341,-0.253801 -0.682797,-0.253801 -0.195181,0 -0.291504,0.02232 -0.477295,0.110588 l -0.157227,0.0747 -1.119664,1.119663 -1.119663,1.119663 -0.07503,0.157227 c -0.09291,0.194707 -0.1173,0.315707 -0.105956,0.525713 0.01501,0.277855 0.111809,0.497889 0.303265,0.689344 0.191454,0.191455 0.411489,0.288255 0.689343,0.303265 0.210376,0.01136 0.331333,-0.01311 0.525713,-0.106352 l 0.157228,-0.07542 0.579259,-0.576325 c 0.608917,-0.605834 0.655582,-0.643642 0.794412,-0.643642 0.127015,0 0.267953,0.09475 0.318946,0.214426 0.03566,0.08368 0.03166,0.211015 -0.0091,0.289792 -0.04683,0.09049 -1.190444,1.224243 -1.319402,1.308021 -0.390236,0.25352 -0.842958,0.352247 -1.279512,0.279029 z m 2.748097,-2.74458 c -0.370282,-0.07053 -0.692449,-0.233919 -0.933259,-0.473298 -0.130682,-0.129906 -0.163397,-0.264086 -0.09875,-0.405015 0.06274,-0.136777 0.178847,-0.211487 0.326833,-0.210309 0.100962,8.04e-4 0.172598,0.03629 0.312357,0.154733 0.189385,0.160499 0.425525,0.246072 0.6779,0.245659 0.244336,-4.11e-4 0.447626,-0.0662 0.636091,-0.205889 0.04193,-0.03108 0.606087,-0.587632 1.25369,-1.236792 l 1.177459,-1.18029 0.07516,-0.157227 c 0.09302,-0.1946 0.117438,-0.315586 0.106086,-0.525714 -0.01501,-0.277854 -0.11181,-0.497889 -0.303264,-0.689343 C 39.893992,77.1398 39.673958,77.043 39.396103,77.02799 c -0.210306,-0.01136 -0.331272,0.01309 -0.525714,0.106277 l -0.157227,0.07535 -0.67856,0.675737 C 37.320574,78.596412 37.282645,78.627927 37.14,78.6287 c -0.09406,5.28e-4 -0.225164,-0.06879 -0.280093,-0.148051 -0.0618,-0.08918 -0.07822,-0.171238 -0.05643,-0.281892 l 0.01793,-0.09103 0.672794,-0.675862 c 0.795309,-0.798935 0.871561,-0.862644 1.180612,-0.986394 0.819399,-0.328103 1.748126,-0.01048 2.186128,0.747646 0.341252,0.590667 0.318362,1.287916 -0.06154,1.874525 -0.07081,0.109339 -2.415481,2.474264 -2.57448,2.59672 -0.203488,0.156719 -0.421675,0.260951 -0.680827,0.325245 -0.180127,0.04469 -0.521009,0.05712 -0.688958,0.02513 z"
       id="path1" /></g></svg>
