<?xml version="1.0" encoding="UTF-8" standalone="no"?>
<!-- Created with Inkscape (http://www.inkscape.org/) -->

<svg
   width="144.3773mm"
   height="144.3663mm"
   viewBox="0 0 144.3773 144.3663"
   version="1.1"
   id="svg1"
   xml:space="preserve"
   sodipodi:docname="link-icon.svg"
   inkscape:version="1.3 (1:1.3+202307231459+0e150ed6c4)"
   xmlns:inkscape="http://www.inkscape.org/namespaces/inkscape"
   xmlns:sodipodi="http://sodipodi.sourceforge.net/DTD/sodipodi-0.dtd"
   xmlns="http://www.w3.org/2000/svg"
   xmlns:svg="http://www.w3.org/2000/svg"><sodipodi:namedview
     id="namedview1"
     pagecolor="#ffffff"
     bordercolor="#000000"
     borderopacity="0.25"
     inkscape:showpageshadow="2"
     inkscape:pageopacity="0.0"
     inkscape:pagecheckerboard="0"
     inkscape:deskcolor="#d1d1d1"
     inkscape:document-units="mm"
     inkscape:zoom="1.4955013"
     inkscape:cx="273.15255"
     inkscape:cy="272.81821"
     inkscape:window-width="1850"
     inkscape:window-height="1016"
     inkscape:window-x="0"
     inkscape:window-y="0"
     inkscape:window-maximized="1"
     inkscape:current-layer="layer1" /><defs
     id="defs1" /><g
     inkscape:label="Layer 1"
     inkscape:groupmode="layer"
     id="layer1"
     transform="translate(-236.49502,-84.019407)"><path
       style="fill:#999999"
       d="m 261.59922,227.98409 c -6.81385,-1.14282 -13.57116,-4.97524 -17.9274,-10.16757 -8.76706,-10.4497 -9.56819,-24.74733 -2.038,-36.3716 1.20837,-1.86534 37.81634,-38.81642 40.5142,-40.89392 10.2247,-7.87356 23.91781,-8.44287 34.85445,-1.44912 5.5973,3.57935 7.64536,7.08743 6.10197,10.45193 -1.07047,2.33355 -3.04974,3.60636 -5.57674,3.58624 -1.74673,-0.0139 -2.70898,-0.48129 -5.15506,-2.50388 -3.50175,-2.89549 -7.35541,-4.32792 -11.64335,-4.32792 -3.32831,0 -4.97085,0.38057 -8.13904,1.88578 l -2.68111,1.2738 -19.09299,19.09299 -19.09299,19.09299 -1.27941,2.68111 c -1.5844,3.32023 -2.00026,5.38358 -1.80681,8.96469 0.25594,4.7381 1.90662,8.49022 5.1714,11.75499 3.26477,3.26478 7.01689,4.91546 11.75499,5.17141 3.58742,0.19379 5.65003,-0.22348 8.96469,-1.81356 l 2.68112,-1.28616 9.87777,-9.82775 c 10.38353,-10.33095 11.17928,-10.97567 13.54667,-10.97567 2.16592,0 4.56924,1.61574 5.43881,3.65649 0.60805,1.42698 0.53978,3.59833 -0.15536,4.94166 -0.7985,1.54307 -20.29996,20.87634 -22.49901,22.30496 -6.65448,4.32313 -14.37449,6.00666 -21.8188,4.75811 z m 46.86175,-46.80178 c -6.31421,-1.20276 -11.80795,-3.98889 -15.91434,-8.07089 -2.22845,-2.21521 -2.78632,-4.50332 -1.68391,-6.9065 1.06993,-2.33238 3.04978,-3.60636 5.57329,-3.58627 1.72165,0.0137 2.94323,0.61884 5.32646,2.63857 3.22947,2.73689 7.25624,4.19612 11.55985,4.18908 4.16652,-0.007 7.63311,-1.12887 10.84689,-3.5109 0.71496,-0.52992 10.33527,-10.02056 21.37847,-21.09032 l 20.07855,-20.12683 1.28163,-2.68111 c 1.58627,-3.31839 2.0026,-5.3815 1.80903,-8.96469 -0.25595,-4.7381 -1.90663,-8.49022 -5.1714,-11.75499 -3.26477,-3.264769 -7.01689,-4.915449 -11.75499,-5.171399 -3.58623,-0.19373 -5.64899,0.22327 -8.9647,1.81228 l -2.68111,1.28488 -11.57111,11.522969 c -12.17592,12.12528 -12.82269,12.66269 -15.25514,12.67587 -1.60399,0.009 -3.8396,-1.173 -4.77627,-2.52462 -1.05383,-1.52067 -1.33393,-2.92004 -0.96219,-4.80696 l 0.30581,-1.55223 11.47278,-11.52509 c 13.56195,-13.623788 14.86224,-14.710177 20.13231,-16.820415 13.97275,-5.59496 29.80982,-0.178756 37.27881,12.749186 5.81918,10.072299 5.42885,21.962109 -1.04938,31.965209 -1.2075,1.86451 -41.18984,42.19224 -43.90117,44.28041 -3.46996,2.67244 -7.19059,4.44986 -11.60976,5.54622 -3.0716,0.76204 -8.88447,0.97408 -11.74841,0.42854 z"
       id="path1" /></g></svg>
