<?xml version="1.0" encoding="UTF-8" standalone="no"?>
<!-- Created with Inkscape (http://www.inkscape.org/) -->

<svg
   width="7.9380164mm"
   height="10.853957mm"
   viewBox="0 0 7.9380164 10.853957"
   version="1.1"
   id="svg1"
   xml:space="preserve"
   xmlns="http://www.w3.org/2000/svg"
   xmlns:svg="http://www.w3.org/2000/svg"><defs
     id="defs1" /><g
     id="layer1"
     transform="translate(1688.2581,546.33452)"><path
       style="fill:#b3b3b3;stroke-width:0.0330113"
       d="m -1683.9342,-535.54486 c -0.079,-0.0402 -0.1888,-0.13386 -0.2438,-0.20815 -0.2235,-0.30198 -0.5904,-1.20266 -0.6453,-1.5838 -0.036,-0.25124 -0.076,-0.26363 -0.9108,-0.28404 l -0.6894,-0.0168 -0.4834,-1.25443 c -0.4953,-1.28494 -0.6491,-1.60695 -0.9515,-1.99154 -0.3534,-0.44947 -0.4617,-0.72014 -0.367,-0.91765 0.057,-0.11826 0.1718,-0.17627 0.351,-0.17689 0.3516,-10e-4 0.4793,0.14132 0.9568,1.06781 0.3863,0.74942 0.519,0.97841 0.5671,0.97841 0.04,0 0.1196,-0.38047 0.1835,-0.8748 0.169,-1.30723 0.6627,-2.92835 1.2905,-4.23739 0.4498,-0.93796 0.8556,-1.42296 1.0533,-1.25891 0.082,0.0681 0,0.35034 -0.4374,1.4194 -0.7606,1.88031 -0.9431,2.65074 -1.2121,5.11676 -0.064,0.59008 -0.1258,1.14343 -0.1365,1.22967 l -0.019,0.15681 h 0.2114 c 0.3612,0 0.3393,0.0734 0.3408,-1.14449 0,-0.94 0.01,-1.09183 0.074,-1.44034 0.2999,-1.60588 0.9237,-2.82649 1.6083,-3.14721 0.3151,-0.14757 0.7481,-0.0786 0.8231,0.13107 0.043,0.12085 -0.036,0.1974 -0.3142,0.30371 -0.1771,0.0677 -0.2613,0.12484 -0.3878,0.26322 -0.496,0.54278 -0.9305,1.96159 -0.9906,3.23492 -0.027,0.58135 0,1.12164 0.053,1.17754 0.034,0.0335 0.1363,0.0172 0.5266,-0.0839 0.5597,-0.14488 0.7071,-0.21254 1.077,-0.49415 0.3152,-0.24 0.571,-0.36773 0.9099,-0.45442 0.6177,-0.15796 1.0722,-0.0164 1.2958,0.40366 0.114,0.21403 0.1066,0.62352 -0.017,0.92023 -0.3005,0.72398 -1.0525,1.25444 -1.7783,1.25444 -0.5376,0 -0.9354,-0.28479 -1.0705,-0.76653 -0.03,-0.10828 -0.078,-0.20561 -0.1059,-0.2163 -0.058,-0.0222 -0.4823,0.19276 -0.6394,0.32396 -0.1407,0.11747 -0.1351,0.22301 0.039,0.73419 0.1697,0.49752 0.3198,0.73326 0.5413,0.85005 0.2052,0.10821 0.2634,0.21681 0.2453,0.45774 -0.036,0.47585 -0.3768,0.7166 -0.7479,0.52816 z m 2.1996,-2.77395 c 0.1631,-0.0789 0.2997,-0.24646 0.4406,-0.54031 0.1253,-0.26116 0.1266,-0.40224 0,-0.44889 -0.1877,-0.0716 -0.5374,0.0505 -0.6001,0.20948 -0.016,0.0409 -0.048,0.12347 -0.07,0.1835 -0.023,0.06 -0.113,0.18398 -0.2011,0.27544 -0.1775,0.18411 -0.2044,0.29382 -0.086,0.35089 0.1234,0.0595 0.3555,0.0459 0.5124,-0.0301 z"
       id="path179-2-7" /></g></svg>
