<?xml version="1.0" encoding="UTF-8" standalone="no"?>
<!-- Created with Inkscape (http://www.inkscape.org/) -->

<svg
   width="7.93752mm"
   height="10.853972mm"
   viewBox="0 0 7.93752 10.853972"
   version="1.1"
   id="svg1"
   xml:space="preserve"
   xmlns="http://www.w3.org/2000/svg"
   xmlns:svg="http://www.w3.org/2000/svg"><defs
     id="defs1" /><g
     id="layer1"
     transform="translate(61.052846,-9.2461965)"><path
       style="fill:#ffffff;stroke-width:0.0330113"
       d="m -56.729024,20.035882 c -0.0791,-0.0402 -0.18886,-0.13386 -0.24384,-0.20815 -0.22346,-0.30198 -0.59042,-1.20266 -0.64526,-1.5838 -0.0362,-0.25124 -0.0759,-0.26363 -0.91082,-0.28404 l -0.68936,-0.0168 -0.48347,-1.25443 c -0.49522,-1.28494 -0.64907,-1.60695 -0.95149,-1.99154 -0.35341,-0.44947 -0.46166,-0.72014 -0.36696,-0.91765 0.0567,-0.11826 0.17182,-0.17627 0.35097,-0.17689 0.35165,-10e-4 0.47935,0.14132 0.95686,1.06781 0.38625,0.74942 0.51895,0.97841 0.56702,0.97841 0.0398,0 0.11962,-0.38047 0.18353,-0.8748 0.169,-1.30723 0.66272,-2.92835 1.29052,-4.23739 0.44982,-0.9379596 0.8556,-1.4229596 1.05327,-1.2589096 0.0821,0.0681 -0.005,0.35034 -0.43736,1.4193996 -0.7606,1.88031 -0.94312,2.65074 -1.21217,5.11676 -0.0644,0.59008 -0.12579,1.14343 -0.13647,1.22967 l -0.0194,0.15681 h 0.21136 c 0.36119,0 0.33933,0.0734 0.34078,-1.14449 10e-4,-0.94 0.009,-1.09183 0.074,-1.44034 0.2999,-1.60589 0.92367,-2.82649 1.60833,-3.14721 0.31503,-0.14757 0.74806,-0.0786 0.82305,0.13107 0.0432,0.12085 -0.036,0.1974 -0.31417,0.30371 -0.17708,0.0677 -0.2613,0.12484 -0.38778,0.26322 -0.49607,0.54278 -0.93054,1.96159 -0.99061,3.23492 -0.0274,0.58135 -0.003,1.12164 0.053,1.17754 0.0337,0.0335 0.13626,0.0172 0.5266,-0.0839 0.55965,-0.14488 0.70712,-0.21254 1.07698,-0.49415 0.31522,-0.24 0.57097,-0.36773 0.90994,-0.45442 0.61762,-0.15796 1.07218,-0.0164 1.29581,0.40366 0.11394,0.21403 0.10656,0.62352 -0.0166,0.92023 -0.3005,0.72398 -1.0525,1.25444 -1.77835,1.25444 -0.53763,0 -0.93535,-0.28479 -1.07052,-0.76653 -0.0304,-0.10828 -0.078,-0.20561 -0.10588,-0.2163 -0.0579,-0.0222 -0.48225,0.19276 -0.63941,0.32396 -0.14071,0.11747 -0.13507,0.22301 0.0392,0.73419 0.16965,0.49752 0.31976,0.73326 0.54127,0.85005 0.20525,0.10821 0.26344,0.21681 0.24527,0.45774 -0.0359,0.47585 -0.37681,0.7166 -0.74786,0.52816 z m 2.19963,-2.77395 c 0.16302,-0.0789 0.29964,-0.24646 0.44058,-0.54031 0.12526,-0.26116 0.1266,-0.40224 0.004,-0.44889 -0.18773,-0.0716 -0.5374,0.0505 -0.60012,0.20948 -0.0161,0.0409 -0.0477,0.12347 -0.0701,0.1835 -0.0224,0.06 -0.11292,0.18398 -0.20108,0.27544 -0.17745,0.18411 -0.20434,0.29382 -0.086,0.35089 0.12338,0.0595 0.35553,0.0459 0.51248,-0.0301 z"
       id="path179-2" /></g></svg>
